<?xml version="1.0"?>
<!DOCTYPE svg PUBLIC "-//W3C//DTD SVG 1.1//EN"    "http://www.w3.org/Graphics/SVG/1.1/DTD/svg11.dtd">
<svg xmlns="http://www.w3.org/2000/svg" xmlns:xlink="http://www.w3.org/1999/xlink" 
 width="1920" height="1080">
<defs>
	<style>
		svg{background:#212120;}
		.wrap{fill:#121212; stroke:#000000; stroke-width:1;}
		.wrap2{fill:#3D3D3A; stroke:#000000; stroke-width:1;}
		.button{fill:#E5E6E8; stroke:#BDBEC0; stroke-width:1;}
		.input{fill:#121212; stroke:#000000; stroke-width:1; }
		.go{fill:#EA0202; stroke:#e63636; stroke-width:2;}
		.text{font-family:arial;text-anchor:left;font-size:36px; font-weight:500; fill:#212120;}
		.text2{font-family:arial;text-anchor:left;font-size:30px; font-weight:500; fill:#212120;}
		.text3{font-family:arial;text-anchor:left;font-size:29px; font-weight:500; fill:#E5E6E8;}
		.key{cursor:pointer;}
		.keys{fill:#E5E6E8;}
		.click{cursor:pointer;}
		.close{cursor:pointer;}
		.black{fill:#000000;}
		.wr1{fill:#3D3D3A; opacity: 0.5;}
		.decor_r{fill:#000000; opacity: 0.4;}
	</style>
	<symbol id="bas"  width="400" height="400"  viewBox="0 0 400 400" >
	<rect
     y="0.88731968"
     x="1.7985159"
     height="141.02242"
     width="447.74619"
     id="rect7312"
     style="fill:#000000" /><g
     id="shape1-1"
     transform="translate(53.8583,-53.0079)"><title
       id="title11">Лист.1</title><desc
       id="desc13">VISIOBAS</desc><path
       id="rect15"
       d="m 0,104.697 354.33099,0 0,35.1761 -354.33099,0 z"
       style="fill:none;stroke:none;stroke-width:0.75;stroke-linecap:round;stroke-linejoin:round" /><g
       id="text17"
       style="font-size:59.99987793px;font-family:'Eras Bold ITC';fill:#000000"><path
         id="path7296"
         style="font-size:59.99987793px;font-family:'Eras Bold ITC';fill:#ffffff"
         d="M 17.564426,148.16 16.480443,144.58579 9.3320204,123.99013 3.7070318,108.16985 q 3.9843669,0.0586 7.0898292,0.0586 1.904293,0 5.976551,-0.0586 0.673826,2.60742 1.054685,3.95507 0.527343,1.75781 1.992183,6.35741 l 4.306632,13.85739 q 0.64453,2.16797 1.582028,5.65429 l 1.347654,-3.36914 10.224588,-22.38276 q 0.263672,-0.61524 0.585937,-1.40625 0.351561,-0.79101 1.083982,-2.66601 4.248038,0.0586 6.826158,0.0586 1.611325,0 6.386706,-0.0586 -2.988276,5.5664 -6.767565,13.00779 l -10.107401,20.03902 q -1.464841,2.92968 -3.281243,6.94334 -4.921865,-0.0586 -7.031236,-0.0586 -1.962887,0 -7.412094,0.0586 z" /><path
         id="path7298"
         style="font-size:59.99987793px;font-family:'Eras Bold ITC';fill:#ffffff"
         d="m 52.281152,148.16 q 1.699216,-23.52534 1.699216,-36.21086 l -0.0293,-3.77929 q 5.126942,0.0586 6.855455,0.0586 0.791014,0 6.298815,-0.0586 -0.527343,6.59178 -0.849608,12.48044 -0.410155,8.20311 -0.585936,15.35154 -0.175781,7.11912 -0.175781,12.15817 l -6.005847,-0.0586 q -1.757809,0 -7.207017,0.0586 z" /><path
         id="path7300"
         style="font-size:59.99987793px;font-family:'Eras Bold ITC';fill:#ffffff"
         d="m 72.32017,147.54477 q -0.380859,-6.24022 -0.878905,-9.99021 3.281244,1.46484 5.830067,2.05077 2.578119,0.55664 4.511709,0.55664 2.548823,0 4.042961,-0.73242 1.523434,-0.76171 1.523434,-2.22656 0,-0.49804 -0.146484,-0.93749 -0.146484,-0.46875 -0.556639,-1.02539 -0.410156,-0.58594 -1.171873,-1.25976 l -5.507801,-4.80468 q -1.93359,-1.64062 -2.695307,-2.37304 -1.552731,-1.49414 -2.431636,-2.7832 -0.849608,-1.28906 -1.259763,-2.60742 -0.380859,-1.34765 -0.380859,-2.84179 0,-1.78711 0.615234,-3.48632 0.644529,-1.72851 1.904293,-3.22265 1.259763,-1.49414 3.339836,-2.57812 2.080074,-1.08398 4.453116,-1.46484 2.373042,-0.41016 4.892569,-0.41016 4.951161,0 10.781228,1.14258 0.08789,2.02148 0.205077,3.72069 0.117188,1.66992 0.55664,5.88866 -2.695307,-1.08398 -4.921865,-1.49413 -2.226558,-0.43946 -3.837883,-0.43946 -2.285152,0 -3.808586,0.84961 -1.494138,0.84961 -1.494138,2.10937 0,0.58594 0.234375,1.14258 0.234375,0.55664 0.878904,1.31836 0.64453,0.73242 1.699216,1.64062 1.054685,0.8789 3.31054,2.63671 l 2.109371,1.66992 q 0.937498,0.76172 2.02148,1.8457 1.083982,1.08398 1.874996,2.13867 0.791014,1.05468 1.201169,1.93359 0.439453,0.8789 0.64453,1.7871 0.205074,0.87891 0.205074,1.90429 0,2.63672 -1.259759,5.03906 -1.259763,2.37304 -3.574211,3.92577 -2.314449,1.52343 -5.097646,2.13867 -2.753901,0.61523 -5.830067,0.61523 -4.746084,0 -11.982397,-1.37695 z" /><path
         id="path7302"
         style="font-size:59.99987793px;fill:#ffffff"
         d="m 105.95292,148.16 q 1.69922,-23.52534 1.69922,-36.21086 l -0.0293,-3.77929 q 5.12694,0.0586 6.85545,0.0586 0.79102,0 6.29882,-0.0586 -0.52734,6.59178 -0.84961,12.48044 -0.41015,8.20311 -0.58593,15.35154 -0.17579,7.11912 -0.17579,12.15817 l -6.00584,-0.0586 q -1.75781,0 -7.20702,0.0586 z" /><path
         id="path7304"
         style="font-size:59.99987793px;fill:#ffffff"
         d="m 150.54267,107.40813 q 4.68749,0 9.02342,1.25977 4.33593,1.25976 7.58787,4.04296 3.25195,2.7539 4.86328,6.35741 1.61132,3.6035 1.61132,8.29099 0,4.92187 -1.78711,9.05272 -1.7578,4.10155 -5.09764,6.97264 -3.33984,2.87109 -7.96874,4.21874 -4.62889,1.31836 -9.63865,1.31836 -4.95116,0 -9.49217,-1.28906 -4.541,-1.31836 -7.91014,-4.21874 -3.33983,-2.92968 -4.74608,-6.50389 -1.40625,-3.57421 -1.40625,-7.93944 0,-6.416 2.95898,-11.24998 2.98828,-4.86327 8.81834,-7.58787 5.85937,-2.72461 13.18357,-2.72461 z m -0.52734,8.81834 q -3.36914,0 -6.09374,1.66992 -2.7246,1.64063 -4.18945,4.5996 -1.46484,2.92968 -1.46484,6.29882 0,3.10546 1.31836,5.68358 1.34765,2.57812 4.07226,4.04296 2.7246,1.43555 5.77147,1.43555 3.25195,0 5.94725,-1.61133 2.72461,-1.64062 4.13085,-4.5703 1.43555,-2.95898 1.43555,-6.18163 0,-3.13476 -1.31836,-5.77147 -1.31835,-2.66601 -3.86718,-4.13085 -2.54882,-1.46485 -5.74217,-1.46485 z" /><path
         id="path7306"
         style="font-size:89.99981689px;font-family:'Brush Script MT';fill:#ff0000"
         d="m 200.18612,118.45303 -2.2412,2.63672 q 3.91112,0.35156 6.98729,0.96679 3.07616,0.57129 5.66893,1.31836 2.63671,0.70312 4.61425,1.49414 6.94334,2.90038 6.94334,8.08592 0,3.16405 -2.90038,6.19627 -2.90039,3.03222 -7.55858,5.40527 -4.61425,2.37304 -9.53611,3.69139 -4.87792,1.36231 -8.87694,1.36231 -6.67967,0 -10.41502,-2.46094 -3.73534,-2.50487 -3.73534,-6.81151 0,-2.98827 2.28515,-7.03123 2.28515,-4.04296 7.07518,-10.06346 -3.60351,-0.17578 -5.09764,-1.05468 -1.49414,-0.92285 -1.49414,-2.54883 0,-1.01074 0.57129,-1.53808 0.57129,-0.52734 1.53808,-0.74707 0.96679,-0.26367 3.6914,-0.61523 2.76855,-0.35156 7.07518,-0.87891 4.79003,-5.88866 8.56932,-8.83299 3.82323,-2.98827 8.17381,-3.42772 0.35156,-0.0439 0.74707,-0.0439 0.43945,0 0.43945,0.21973 0,0.26367 -1.01074,1.40625 -0.96679,1.14257 -3.208,3.64745 -2.19726,2.50488 -5.22948,5.9326 8.2617,-1.09863 13.49118,-2.50487 5.27343,-1.4502 7.95409,-3.42773 2.68066,-1.97754 2.68066,-4.39452 0,-2.94433 -2.85644,-4.26269 -2.85644,-1.318357 -8.7451,-1.318357 -3.25195,0 -7.47069,0.659179 -4.1748,0.659178 -7.60253,1.494138 -3.38378,0.83496 -6.06444,1.80175 -2.63671,0.92285 -2.63671,1.36231 0,0.13183 0.26367,0.26367 2.15332,0.79101 2.15332,1.31835 0,0.70313 -6.59179,2.72461 -6.59178,1.97753 -8.87693,1.97753 -1.62597,0 -1.62597,-1.62597 0,-1.93359 3.51561,-6.94335 3.55957,-5.053697 6.45995,-6.459944 1.01074,-0.483398 4.70214,-1.538083 3.6914,-1.054685 8.08592,-2.02148 4.43847,-0.966795 9.00877,-1.625973 4.57031,-0.659179 8.08592,-0.659179 8.30565,0 12.48045,2.988275 4.17479,2.94433 4.17479,7.426743 0,3.032221 -1.93359,5.844711 -1.88964,2.8125 -5.9326,5.31738 -4.04296,2.50487 -10.54686,4.39452 -6.45994,1.88964 -15.24899,2.90038 z m -4.65819,5.66894 q -2.28515,2.7246 -4.08691,4.83397 -1.75781,2.06543 -2.54882,3.38378 -0.74707,1.27441 -0.74707,2.59277 0,2.10937 2.15332,3.77929 2.19726,1.62597 6.28416,1.62597 3.77929,0 8.04198,-1.31835 4.30663,-1.3623 7.20702,-3.51562 2.94433,-2.15332 2.94433,-4.35058 0,-1.88964 -2.15332,-3.12011 -2.15332,-1.23046 -6.54784,-2.15331 -4.39452,-0.9668 -10.54685,-1.75781 z" /><path
         id="path7308"
         style="font-size:89.99981689px;font-family:'Brush Script MT';fill:#ff0000"
         d="m 264.34614,130.05457 q -5.27342,0.17578 -7.73436,0.17578 -3.77929,0 -10.45896,-0.17578 -1.40625,1.53808 -3.42773,3.64746 -2.02148,2.06542 -3.82323,3.86717 -1.80176,1.75781 -3.12011,3.03223 -1.27441,1.23046 -2.10937,2.06542 -4.87792,4.74608 -6.37206,6.19628 -1.45019,1.45019 -3.07617,2.59277 -1.62597,1.18652 -2.98827,1.18652 -1.53808,0 -1.53808,-1.40625 0,-1.53808 2.19726,-4.74608 2.19726,-3.20801 4.96581,-5.66894 2.76855,-2.46093 4.52635,-2.46093 0.4834,0 1.36231,0.43945 l 8.34959,-8.92088 q -1.58203,-0.21973 -4.13085,-0.26367 -2.54882,-0.0879 -3.42773,-0.39551 -0.8789,-0.30761 -0.8789,-1.49414 0,-1.88964 4.04296,-5.9326 2.19726,-2.24121 4.13085,-2.85644 1.93359,-0.61523 7.3828,-0.65918 -3.20801,0.43945 -4.57031,1.05469 -1.31835,0.57129 -1.45019,1.75781 1.27441,0 2.3291,0 1.09863,0 2.81249,0 1.75781,-0.0439 2.59277,-0.0879 7.20702,-7.03124 13.09568,-12.21678 5.88866,-5.22948 12.39255,-9.887671 6.54784,-4.702139 13.93063,-8.613264 1.4502,1.889644 1.4502,3.95507 0,1.713864 -1.14258,3.95507 -1.09863,2.241205 -4.74608,8.437485 -3.60351,6.15233 -7.33886,13.09567 1.23047,0 2.02148,0.0439 0.83496,0 1.75781,0.0439 2.50488,0 3.03222,0.0879 0.57129,0.0879 0.57129,0.8789 0,0.35156 -0.70312,1.27441 -0.65918,0.87891 -2.37304,2.98828 -1.71387,2.06542 -3.33984,4.21874 l -6.45995,0.52734 q -5.14159,9.66795 -5.14159,10.89842 0,1.80175 1.88965,1.80175 0.92284,0 7.64646,-3.86718 l -0.35156,2.3291 q -3.60351,2.7246 -5.62499,4.30663 -1.97753,1.53808 -3.47167,2.59277 -1.45019,1.01074 -2.68066,1.49413 -1.18652,0.52735 -2.41699,0.52735 -1.45019,0 -2.85643,-1.3623 -1.40625,-1.31836 -1.40625,-3.77929 0,-1.01074 0.74707,-2.85644 0.74707,-1.88965 1.58203,-3.60351 0.8789,-1.71387 4.35057,-8.21776 z m -8.30564,-9.97556 14.23825,-0.26368 q 2.50488,-4.26268 4.04296,-6.8994 1.58203,-2.63671 3.42773,-5.71287 1.88964,-3.12012 3.208,-5.27343 1.3623,-2.153317 2.98827,-4.877921 -3.16405,1.977535 -6.45995,4.394521 -3.29589,2.41699 -7.42674,5.84472 -4.13085,3.38378 -7.33885,6.32811 -3.208,2.90038 -6.67967,6.45995 z" /><path
         id="path7310"
         style="font-size:89.99981689px;font-family:'Brush Script MT';fill:#ff0000"
         d="m 328.50616,135.45983 q -1.09863,-2.02148 -3.29589,-3.64745 -2.19726,-1.62597 -4.96581,-2.59277 -2.7246,-1.01074 -5.71288,-1.49414 -8.87693,-1.31835 -16.56735,-5.75682 -0.65918,-0.35156 -1.40625,-1.49414 -0.74706,-1.14257 -0.74706,-2.19726 0,-3.86718 1.27441,-7.73436 1.31835,-3.91112 3.33983,-6.10838 3.25195,-3.64746 11.68943,-6.372061 8.48143,-2.724603 19.07223,-2.724603 6.32811,0 9.75584,0.966794 3.47167,0.966795 3.47167,2.988276 0,3.295894 -0.92285,5.097644 -0.8789,1.80176 -1.93359,2.41699 -1.01074,0.57129 -3.6035,1.58203 -2.76855,0.96679 -4.83398,2.02148 -2.02148,1.05468 -3.47167,2.02148 -1.45019,0.96679 -1.80176,0.96679 -0.43945,0 -0.43945,-0.35156 0,-0.74707 1.53808,-2.24121 1.58203,-1.53808 3.86718,-2.68065 2.41699,-1.27442 2.41699,-1.62598 0,-0.57129 -2.68066,-0.57129 -8.12986,0 -15.02926,1.4502 -6.8994,1.45019 -10.89842,3.82323 -3.95507,2.37304 -3.95507,4.83398 0,1.53808 1.62597,2.19726 1.66992,0.61523 7.29491,2.10937 5.62499,1.49414 10.06346,3.42772 6.37205,2.72461 9.44822,5.66894 3.07617,2.94433 3.07617,6.59178 0,2.50488 -1.23047,5.0537 -1.18652,2.50488 -3.51562,4.61425 -2.3291,2.10937 -5.36132,3.47167 -2.59276,1.09863 -6.54783,2.06543 -3.91113,0.96679 -8.52538,1.49414 -4.5703,0.57128 -8.7451,0.57128 -7.69041,0 -12.39255,-1.45019 -4.65819,-1.45019 -4.65819,-4.39452 0,-1.31836 1.58203,-4.08691 1.58202,-2.81249 3.73534,-3.77928 1.88964,-0.74707 3.64745,-0.83496 1.75781,-0.13184 1.75781,0.3955 0,0.13184 -0.13183,0.26367 -0.13184,0.13184 -0.30762,0.21973 -0.17578,0.0879 -0.35156,0.17578 -0.87891,0.35156 -1.45019,0.57129 -0.52735,0.17578 -0.87891,0.39551 -0.30762,0.17578 -0.30762,0.52734 0,0.92285 9.09667,0.92285 7.91014,0 12.96384,-0.57129 5.0537,-0.57129 8.92088,-2.06542 3.86718,-1.49414 7.03123,-4.13086 z" /></g></g>
	</symbol>	
</defs>	
	<g class="decor" transform="scale(1,1) translate(20,-40)" >
	<rect x="410" y="40" height="245" width="245" fill="#121212" opacity="1" />
	<rect x="660" y="40" height="245" width="245" fill="#121212" opacity="1"  />
	<rect x="910" y="40" height="245" width="245" fill="#121212" opacity="1"  />
	<rect x="1160" y="40" height="245" width="245" fill="#121212" opacity="1" />
	<rect x="1410" y="40" height="245" width="245" fill="#121212" opacity="1" />
	
	<rect x="410" y="290" height="245" width="245" fill="#121212" opacity="1" />
	<rect x="660" y="290" height="245" width="245"  fill="#121212" opacity="1" />
	<rect x="910" y="290" height="245" width="245" fill="#121212" opacity="1" />
	<rect x="1160" y="290" height="245" width="245" fill="#121212" opacity="1" />
	<rect x="1410" y="290" height="245" width="245" fill="#121212" opacity="1" />
	
	<rect x="410" y="540" height="245" width="245" fill="#121212" opacity="1" />
	<rect x="660" y="540" height="245" width="245" fill="#121212" opacity="1" />
	<rect x="910" y="540" height="245" width="245" fill="#121212" opacity="1" />
	<rect x="1160" y="540" height="245" width="245" fill="#121212" opacity="1"/>
	<rect x="1410" y="540" height="245" width="245" fill="#121212" opacity="1" />
	
	<rect x="410" y="790" height="245" width="245" fill="#121212" opacity="1" />
	<rect x="660" y="790" height="245" width="245" fill="#121212" opacity="1" />
	<rect x="910" y="790" height="245" width="245" fill="#121212" opacity="1" />
	<rect x="1160" y="790" height="245" width="245" fill="#121212" opacity="1" />
	<rect x="1410" y="790" height="245" width="245" fill="#121212" opacity="1"  />
	</g>
	
		<g class="decor" transform="scale(1,1) translate(60,0)" >
	<rect x="410" y="40" height="245" width="245" fill="#212120" opacity="1" />
	<rect x="660" y="40" height="245" width="245" fill="#212120" opacity="1" />
	<rect x="910" y="40" height="245" width="245" fill="#212120" opacity="1" />
	<rect x="1160" y="40" height="245" width="245" fill="#212120" opacity="1" />
	<rect x="1410" y="40" height="245" width="245" fill="#212120" opacity="1" />
	
	<rect x="410" y="290" height="245" width="245" fill="#212120" opacity="1" />
	<rect x="660" y="290" height="245" width="245"  fill="#212120" opacity="1" />
	<rect x="910" y="290" height="245" width="245" fill="#212120" opacity="1" />
	<rect x="1160" y="290" height="245" width="245" fill="#212120" opacity="1" />
	<rect x="1410" y="290" height="245" width="245" fill="#212120" opacity="1" />
	
	<rect x="410" y="540" height="245" width="245" fill="#212120" opacity="1" />
	<rect x="660" y="540" height="245" width="245" fill="#212120" opacity="1" />
	<rect x="910" y="540" height="245" width="245" fill="#212120" opacity="1" />
	<rect x="1160" y="540" height="245" width="245" fill="#212120" opacity="1"/>
	<rect x="1410" y="540" height="245" width="245" fill="#212120" opacity="1" />
	
	<rect x="410" y="790" height="245" width="245" fill="#212120" opacity="1" />
	<rect x="660" y="790" height="245" width="245" fill="#212120" opacity="1" />
	<rect x="910" y="790" height="245" width="245" fill="#212120" opacity="1" />
	<rect x="1160" y="790" height="245" width="245" fill="#212120" opacity="1" />
	<rect x="1410" y="790" height="245" width="245" fill="#212120" opacity="1"  />
	</g>
	
			<g class="decor" transform="scale(1,1) translate(100,40)" >
	<rect x="410" y="40" height="1000" width="1000" fill="#212120" opacity="1" />
	<rect x="410" y="40" height="245" width="245" fill="#121212" opacity="1" />
	<rect x="660" y="40" height="245" width="245" fill="#121212" opacity="1" />
	<rect x="910" y="40" height="245" width="245" fill="#121212" opacity="1" />
	<rect x="1160" y="40" height="245" width="245" fill="#121212" opacity="1" />
	<rect x="1410" y="40" height="245" width="245" fill="#121212" opacity="1" />
	
	<rect x="410" y="290" height="245" width="245" fill="#121212" opacity="1" />
	<rect x="660" y="290" height="245" width="245"  fill="#121212" opacity="1" />
	<rect x="910" y="290" height="245" width="245" fill="#121212" opacity="1" />
	<rect x="1160" y="290" height="245" width="245" fill="#121212" opacity="1" />
	<rect x="1410" y="290" height="245" width="245" fill="#121212" opacity="1" />
	
	<rect x="410" y="540" height="245" width="245" fill="#121212" opacity="1" />
	<rect x="660" y="540" height="245" width="245" fill="#121212" opacity="1" />
	<rect x="910" y="540" height="245" width="245" fill="#121212" opacity="1" />
	<rect x="1160" y="540" height="245" width="245" fill="#121212" opacity="1"/>
	<rect x="1410" y="540" height="245" width="245" fill="#121212" opacity="1" />
	
	<rect x="410" y="790" height="245" width="245" fill="#121212" opacity="1" />
	<rect x="660" y="790" height="245" width="245" fill="#121212" opacity="1" />
	<rect x="910" y="790" height="245" width="245" fill="#121212" opacity="1" />
	<rect x="1160" y="790" height="245" width="245" fill="#121212" opacity="1" />
	<rect x="1410" y="790" height="245" width="245" fill="#121212" opacity="1"  />
	</g>
	<g class="login">
		<rect x="100" y="0" height="100%" width="300" class="wr1" />
		<path d="M100,0 H400 V200 L250,250 100,200 z" class="black" />
		<use xlink:href="#bas" x="100" y="50" width="265" height="265" />
		
		<text x="210" y="400" class="text3" >Логин:</text>
		<g onclick="enterLogin();">
			<rect  x="100" y="420" height="70" width="300" class="input" />
			<text id="login" x="117" y="470" class="text3" >Login</text>
		</g>
		<text x="200" y="535" class="text3" >Пароль:</text>
		<g onclick="enterPassword();">
			<rect  x="100" y="555" height="70" width="300" class="input" />
			<text id="password" x="116" y="602" class="text3" >Password</text>
		</g>
		<g class="click" onclick="goSubmit();">
			<rect x="100" y="720" height="70" width="300" class="input" />
			<text x="210" y="765" class="text3" >ВХОД</text>
		</g>
	</g>
	<g id="key" class="key" transform="scale(1,1) translate(-1108,426)">
		<rect x="1245" y="210" height="70" width="225" class="input" />
		<rect x="1270" y="225" height="10" width="10" class="keys" />
		<rect x="1285" y="225" height="10" width="10" class="keys" />
		<rect x="1300" y="225" height="10" width="10" class="keys" />
		<rect x="1315" y="225" height="10" width="10" class="keys" />
		<rect x="1330" y="225" height="10" width="10" class="keys" />
		<rect x="1345" y="225" height="10" width="10" class="keys" />
		<rect x="1360" y="225" height="10" width="10" class="keys" />
		<rect x="1375" y="225" height="10" width="10" class="keys" />
		<rect x="1390" y="225" height="10" width="10" class="keys" />
		<rect x="1405" y="225" height="10" width="10" class="keys" />
		<rect x="1420" y="225" height="10" width="10" class="keys" />
		<rect x="1435" y="225" height="10" width="10" class="keys" />
		<rect x="1277" y="240" height="10" width="10" class="keys" />
		<rect x="1292" y="240" height="10" width="10" class="keys" />
		<rect x="1307" y="240" height="10" width="10" class="keys" />
		<rect x="1322" y="240" height="10" width="10" class="keys" />
		<rect x="1337" y="240" height="10" width="10" class="keys" />
		<rect x="1352" y="240" height="10" width="10" class="keys" />
		<rect x="1367" y="240" height="10" width="10" class="keys" />
		<rect x="1382" y="240" height="10" width="10" class="keys" />
		<rect x="1397" y="240" height="10" width="10" class="keys" />
		<rect x="1412" y="240" height="10" width="10" class="keys" />
		<rect x="1427" y="240" height="10" width="10" class="keys" />
		<rect x="1270" y="255" height="10" width="10" class="keys" />
		<rect x="1285" y="255" height="10" width="10" class="keys" />
		<rect x="1300" y="255" height="10" width="115" class="keys" />
		<rect x="1420" y="255" height="10" width="10" class="keys" />
		<rect x="1435" y="255" height="10" width="10" class="keys" />
	</g>
	<g  id="keyboard" class="keyboard" display="none"  transform="scale(1,1) translate(170,-170)">
		<rect x="465" y="540" height="404" width="990" class="wrap2" />
		<desc>1 ряд</desc>
		<g class="click" onclick="enterKey('!');">
			<rect x="495" y="560" rx="3" ry="3" height="48" width="48" class="button" />
			<text x="515" y="595" class="text">!</text>
		</g>
		<g class="click" onclick="enterKey('@');">
			<rect x="558" y="560" rx="3" ry="3" height="48" width="48" class="button" />
			<text x="563" y="595" class="text">@</text>
		</g>
		<g class="click" onclick="enterKey('#');">
			<rect x="621" y="560" rx="3" ry="3" height="48" width="48" class="button" />
			<text x="635" y="595" class="text">#</text>
		</g>
		<g class="click" onclick="enterKey('$');">
			<rect x="684" y="560" rx="3" ry="3" height="48" width="48" class="button" />
			<text x="698" y="595" class="text">$</text>
		</g>
		<g class="click" onclick="enterKey('%');">
			<rect x="747" y="560" rx="3" ry="3" height="48" width="48" class="button" />
			<text x="757" y="595" class="text">%</text>
		</g>
		<g class="click" onclick="enterKey('^');">
			<rect x="810" y="560" rx="3" ry="3" height="48" width="48" class="button" />
			<text x="825" y="605" class="text">^</text>
		</g>
		<g class="click" onclick="enterKey('*');">
			<rect x="873" y="560" rx="3" ry="3" height="48" width="48" class="button" />
			<text x="890" y="600" class="text">*</text>
		</g>
		<g class="click" onclick="enterKey('(');">
			<rect x="936" y="560" rx="3" ry="3" height="48" width="48" class="button" />
			<text x="950" y="595" class="text">(</text>
		</g>
		<g class="click" onclick="enterKey(')');">
			<rect x="999" y="560" rx="3" ry="3" height="48" width="48" class="button" />
			<text x="1015" y="595" class="text">)</text>
		</g>
		<g class="click" onclick="enterKey('_');">
			<rect x="1062" y="560" rx="3" ry="3" height="48" width="48" class="button" />
			<text x="1075" y="590" class="text">_</text>
		</g>
		<g class="click" onclick="enterKey('=');">
			<rect x="1125" y="560" rx="3" ry="3" height="48" width="48" class="button" />
			<text x="1140" y="600" class="text">=</text>
		</g>
		<g class="click" onclick="enterKey('&amp;');">
			<rect x="1188" y="560" rx="3" ry="3" height="48" width="48" class="button" />
			<text x="1202" y="597" class="text">&amp;</text>
		</g>
		<desc>2 ряд</desc>
		<g class="click" onclick="enterKey('`');">
			<rect x="520" y="623" rx="3" ry="3" height="48" width="48" class="button" />
			<text x="540" y="670" class="text">`</text>
		</g>
		<g class="click"  onclick="enterKey('~');">
			<rect x="583" y="623" rx="3" ry="3" height="48" width="48" class="button" />
			<text x="595" y="660" class="text">~</text>
		</g>
		<g class="click"  onclick="enterKey('[');">
			<rect x="646" y="623" rx="3" ry="3" height="48" width="48" class="button" />
			<text x="660" y="657" class="text">[</text>
		</g>
		<g class="click" onclick="enterKey(']');">
			<rect x="709" y="623" rx="3" ry="3" height="48" width="48" class="button" />
			<text x="728" y="657" class="text">]</text>
		</g>
		<g class="click" onclick="enterKey('{');">
			<rect x="772" y="623" rx="3" ry="3" height="48" width="48" class="button" />
			<text x="787" y="657" class="text">{</text>
		</g>
		<g class="click" onclick="enterKey('}');">
			<rect x="835" y="623" rx="3" ry="3" height="48" width="48" class="button" />
			<text x="853" y="657" class="text">}</text>
		</g>
		<g class="click" onclick="enterKey('&#60;');">
			<rect x="898" y="623" rx="3" ry="3" height="48" width="48" class="button" />
			<text x="910" y="660" class="text">&#60;</text>
		</g>
		<g class="click" onclick="enterKey('&#62;');">
			<rect x="961" y="623" rx="3" ry="3" height="48" width="48" class="button" />
			<text x="977" y="660" class="text">&#62;</text>
		</g>
		<g class="click" onclick="enterKey('\');">
			<rect x="1024" y="623" rx="3" ry="3" height="48" width="48" class="button" />
			<text x="1043" y="660" class="text">\</text>
		</g>
		<g class="click" onclick="enterKey('|');">
			<rect x="1087" y="623" rx="3" ry="3" height="48" width="48" class="button" />
			<text x="1105" y="657" class="text">|</text>
		</g>
		<g class="click" onclick="enterKey('/');">
			<rect x="1150" y="623" rx="3" ry="3" height="48" width="48" class="button" />
			<text x="1170" y="660" class="text">/</text>
		</g>
		<g class="click" onclick="enterKey('1');">
			<rect x="1251" y="623" rx="3" ry="3" height="48" width="48" class="button" />
			<text x="1265" y="660" class="text">1</text>
		</g>
		<g class="click" onclick="enterKey('2');">
			<rect x="1314" y="623" rx="3" ry="3" height="48" width="48" class="button" />
			<text x="1328" y="660" class="text">2</text>
		</g>
		<g class="click" onclick="enterKey('3');">
			<rect x="1377" y="623" rx="3" ry="3" height="48" width="48" class="button" />
			<text x="1392" y="660" class="text">3</text>
		</g>
		<desc>3 ряд</desc>
		<g class="click" onclick="enterKey('Q');">
			<rect x="495" y="686" rx="3" ry="3" height="48" width="48" class="button" />
			<text x="505" y="724" class="text">Q</text>
		</g>
		<g class="click" onclick="enterKey('W');">
			<rect x="558" y="686" rx="3" ry="3" height="48" width="48" class="button" />
			<text x="565" y="724" class="text">W</text>
		</g>
		<g class="click" onclick="enterKey('E');">
			<rect x="621" y="686" rx="3" ry="3" height="48" width="48" class="button" />
			<text x="633" y="724" class="text">E</text>
		</g>
		<g class="click" onclick="enterKey('R');">
			<rect x="684" y="686" rx="3" ry="3" height="48" width="48" class="button" />
			<text x="695" y="724" class="text">R</text>
		</g>
		<g class="click" onclick="enterKey('T');">
			<rect x="747" y="686" rx="3" ry="3" height="48" width="48" class="button" />
			<text x="760" y="724" class="text">T</text>
		</g>
		<g class="click" onclick="enterKey('Y');">
			<rect x="810" y="686" rx="3" ry="3" height="48" width="48" class="button" />
			<text x="823" y="724" class="text">Y</text>
		</g>
		<g class="click" onclick="enterKey('U');">
			<rect x="873" y="686" rx="3" ry="3" height="48" width="48" class="button" />
			<text x="884" y="724" class="text">U</text>
		</g>
		<g class="click" onclick="enterKey('I');">
			<rect x="936" y="686" rx="3" ry="3" height="48" width="48" class="button" />
			<text x="955" y="724" class="text">I</text>
		</g>
		<g class="click" onclick="enterKey('O');">
			<rect x="999" y="686" rx="3" ry="3" height="48" width="48" class="button" />
			<text x="1010" y="724" class="text">O</text>
		</g>
		<g class="click" onclick="enterKey('P');">
			<rect x="1062" y="686" rx="3" ry="3" height="48" width="48" class="button" />
			<text x="1075" y="724" class="text">P</text>
		</g>
		<g class="click" onclick="enterKey('&#8217;');">
			<rect x="1125" y="686" rx="3" ry="3" height="48" width="48" class="button" />
			<text x="1140" y="724" class="text">'</text>
		</g>
		<g class="click" onclick="enterKey('&#34;');">
			<rect x="1188" y="686" rx="3" ry="3" height="48" width="48" class="button" />
			<text x="1202" y="724" class="text">"</text>
		</g>
		<g class="click"  onclick="enterKey('4');">
			<rect x="1251" y="686" rx="3" ry="3" height="48" width="48" class="button" />
			<text x="1265" y="724" class="text">4</text>
		</g>
		<g class="click"  onclick="enterKey('5');">
			<rect x="1314" y="686" rx="3" ry="3" height="48" width="48" class="button" />
			<text x="1328" y="724" class="text">5</text>
		</g>
		<g class="click"  onclick="enterKey('6');">
			<rect x="1377" y="686" rx="3" ry="3" height="48" width="48" class="button" />
			<text x="1392" y="724" class="text">6</text>
		</g>
		<desc>4 ряд</desc>
		<g class="click"  onclick="enterKey('A');">
			<rect x="520" y="749" rx="3" ry="3" height="48" width="48" class="button" />
			<text x="533" y="786" class="text">A</text>
		</g>
		<g class="click"  onclick="enterKey('S');">
			<rect x="583" y="749" rx="3" ry="3" height="48" width="48" class="button" />
			<text x="596" y="786" class="text">S</text>
		</g>
		<g class="click"  onclick="enterKey('D');">
			<rect x="646" y="749" rx="3" ry="3" height="48" width="48" class="button" />
			<text x="657" y="786" class="text">D</text>
		</g>
		<g class="click"  onclick="enterKey('F');">
			<rect x="709" y="749" rx="3" ry="3" height="48" width="48" class="button" />
			<text x="723" y="786" class="text">F</text>
		</g>
		<g class="click"  onclick="enterKey('G');">
			<rect x="772" y="749" rx="3" ry="3" height="48" width="48" class="button" />
			<text x="783" y="786" class="text">G</text>
		</g>
		<g class="click"  onclick="enterKey('H');">
			<rect x="835" y="749" rx="3" ry="3" height="48" width="48" class="button" />
			<text x="847" y="786" class="text">H</text>
		</g>
		<g class="click"  onclick="enterKey('J');">
			<rect x="898" y="749" rx="3" ry="3" height="48" width="48" class="button" />
			<text x="913" y="786" class="text">J</text>
		</g>
		<g class="click"  onclick="enterKey('K');">
			<rect x="961" y="749" rx="3" ry="3" height="48" width="48" class="button" />
			<text x="973" y="786" class="text">K</text>
		</g>
		<g class="click"  onclick="enterKey('L');">
			<rect x="1024" y="749" rx="3" ry="3" height="48" width="48" class="button" />
			<text x="1039" y="786" class="text">L</text>
		</g>
		<g class="click"  onclick="enterKey(';');">
			<rect x="1087" y="749" rx="3" ry="3" height="48" width="48" class="button" />
			<text x="1105" y="783" class="text">;</text>
		</g>
		<g class="click"  onclick="enterKey(':');">
			<rect x="1150" y="749" rx="3" ry="3" height="48" width="48" class="button" />
			<text x="1170" y="783" class="text">:</text>
		</g>
		<g class="click"  onclick="enterKey('7');">
			<rect x="1251" y="749" rx="3" ry="3" height="48" width="48" class="button" />
			<text x="1265" y="786" class="text">7</text>
		</g>
		<g class="click" onclick="enterKey('8');">
			<rect x="1314" y="749" rx="3" ry="3" height="48" width="48" class="button" />
			<text x="1328" y="786" class="text">8</text>
		</g>
		<g class="click" onclick="enterKey('9');">
			<rect x="1377" y="749" rx="3" ry="3" height="48" width="48" class="button" />
			<text x="1392" y="786" class="text">9</text>
		</g>
		
		<desc>5 ряд</desc>
		<g class="click" onclick="enterKey('Z');">
			<rect x="550" y="812" rx="3" ry="3" height="48" width="48" class="button" />
			<text x="563" y="848" class="text">Z</text>
		</g>
		<g class="click" onclick="enterKey('X');">
			<rect x="613" y="812" rx="3" ry="3" height="48" width="48" class="button" />
			<text x="626" y="848" class="text">X</text>
		</g>
		<g class="click" onclick="enterKey('C');">
			<rect x="676" y="812" rx="3" ry="3" height="48" width="48" class="button" />
			<text x="688" y="848" class="text">C</text>
		</g>
		<g class="click" onclick="enterKey('V');">
			<rect x="739" y="812" rx="3" ry="3" height="48" width="48" class="button" />
			<text x="752" y="848" class="text">V</text>
		</g>
		<g class="click" onclick="enterKey('B');">
			<rect x="802" y="812" rx="3" ry="3" height="48" width="48" class="button" />
			<text x="815" y="848" class="text">B</text>
		</g>
		<g class="click" onclick="enterKey('N');">
			<rect x="865" y="812" rx="3" ry="3" height="48" width="48" class="button" />
			<text x="877" y="848" class="text">N</text>
		</g>
		<g class="click" onclick="enterKey('M');">
			<rect x="928" y="812" rx="3" ry="3" height="48" width="48" class="button" />
			<text x="939" y="848" class="text">M</text>
		</g>
		<g class="click" onclick="enterKey(',');">
			<rect x="991" y="812" rx="3" ry="3" height="48" width="48" class="button" />
			<text x="1010" y="848" class="text">,</text>
		</g>
		<g class="click"  onclick="enterKey('.');">
			<rect x="1054" y="812" rx="3" ry="3" height="48" width="48" class="button" />
			<text x="1073" y="848" class="text">.</text>
		</g>
		<g class="click"  onclick="enterKey('?');">
			<rect x="1117" y="812" rx="3" ry="3" height="48" width="48" class="button" />
			<text x="1131" y="846" class="text">?</text>
		</g>
		<g class="click" onclick="enterKey('-');">
			<rect x="1251" y="812" rx="3" ry="3" height="48" width="48" class="button" />
			<text x="1270" y="849" class="text">-</text>
		</g>
		<g class="click" onclick="enterKey('0');">
			<rect x="1314" y="812" rx="3" ry="3" height="48" width="48" class="button" />
			<text x="1328" y="849" class="text">0</text>
		</g>
		<g class="click" onclick="enterKey('+');">
			<rect x="1377" y="812" rx="3" ry="3" height="48" width="48" class="button" />
			<text x="1392" y="849" class="text">+</text>
		</g>
		<desc>6 ряд</desc>
		<g class="click" onclick="enterKey('capsLock')">
			<rect x="520" y="875" rx="3" ry="3" height="48" width="150" class="button" />
			<text x="527" y="910" class="text2">CapsLock</text>
		</g>
		<g class="click" onclick="enterKey(' ');">
			<rect x="685" y="875" rx="3" ry="3" height="48" width="513" class="button" />
			<text x="883" y="910" class="text2">SPACE</text>
		</g>
		<g class="click" onclick="enterKey('clear');">
			<rect x="1251" y="875" rx="3" ry="3" height="48" width="174" class="button" />
			<text x="1294" y="910" class="text">Clear</text>
		</g>
		<g id="close" class="close">
			<rect x="1251" y="560" rx="3" ry="3" height="48" width="174" class="button" />
			<text x="1294" y="595" class="text">Close</text>
		</g>
	</g>

	<animate 
    xlink:href="#keyboard"
    attributeName="display" 
    to="block" 
    dur="0.5s"
    begin="key.click"
    fill="freeze" 
    id="key-anim" />
	
	<animate 
    xlink:href="#keyboard"
    attributeName="display" 
    to="none" 
    dur="0.5s"
    begin="close.click"
    fill="freeze" 
    id="close2" />
</svg>