<?xml version="1.0"?>
<!DOCTYPE svg PUBLIC "-//W3C//DTD SVG 1.1//EN"    "http://www.w3.org/Graphics/SVG/1.1/DTD/svg11.dtd">
<svg xmlns="http://www.w3.org/2000/svg" xmlns:xlink="http://www.w3.org/1999/xlink" 
width="3840" height="2160"  viewBox="2500 700 10000 8200">
<defs>
	<style>
	 <![CDATA[
    @font-face {
        font-family:'CRYSTAL';
        src: url('CRYSTAL.ttf');
    }
		svg{background:#41413F;}
		.room{fill:#56A5FF;}
		.contur-12{fill:none; stroke-width:12; stroke:#A7A7A5}
		.contur-10{fill:none; stroke-width:10; stroke:#A7A7A5}
		.contur-14{fill:none; stroke-width:14; stroke:#A7A7A5}
		.contur-20{fill:none; stroke-width:20; stroke:#A7A7A5}
		.contur-8{fill:none; stroke-width:8; stroke:#A7A7A5}
		.contur-12{fill:none; stroke-width:12; stroke:#A7A7A5}
		.contur-18{fill:none; stroke-width:18; stroke:#A7A7A5}
		.contur-24{fill:none; stroke-width:24; stroke:#A7A7A5}
		.contur-60{fill:none; stroke-width:60; stroke:#A7A7A5}
		.contur-70{fill:none; stroke-width:70; stroke:#A7A7A5}
		.contur-70fill{fill:#A7A7A5; stroke-width:0;}
		.contur-50{fill:none; stroke-width:50; stroke:#A7A7A5}
		.contur-30{fill:none; stroke-width:30; stroke:#A7A7A5}
		.contur-36{fill:none; stroke-width:36; stroke:#A7A7A5}
		.contur-32{fill:none; stroke-width:32; stroke:#A7A7A5}
		.contur-46{fill:none; stroke-width:46; stroke:#A7A7A5}
		.contur-86{fill:none; stroke-width:86; stroke:#A7A7A5}
		.contur-40{fill:none; stroke-width:40; stroke:#A7A7A5}
		.contur-4{fill:none; stroke-width:4; stroke:#A7A7A5}
		.border{fill:none; stroke-width:1; stroke:#A7A7A5}
		.border2{fill:none; stroke-width:2; stroke:#A7A7A5}
		.contur-6{fill:none; stroke-width:6; stroke:#A7A7A5}
		.border-fill{fill:#41413F; stroke-width:1; stroke:#A7A7A5}
		.border-full{fill:#A7A7A5; stroke-width:1; stroke:#A7A7A5}
		.lift{stroke-width:1; }
		.lift2{stroke-width:2;}
		.lift3{ stroke-width:2;}
		.number_et{fill:#A7A7A5; stroke-width:0; stroke:#A7A7A5; cursor:pointer;}
		.number_active{fill:#93F630; stroke-width:0; stroke:#93F630;  cursor:pointer;}
		.lift-green{fill:#93f630; stroke:#5a991b;}
		.lift-yellow{fill:#fdf46c; stroke:#ffd200;}
		.lift-gray{fill:#ececec; stroke:#c5c5c5;}
			.gray_term{font-family:arial;text-anchor: middle;font-size:40px; font-weight:700; fill:#A7A7A5; stroke-width:0; stroke:#545452;}
		.green_term{font-family:arial;text-anchor: middle;font-size:40px; font-weight:700; fill:#80ff00; stroke-width:0; stroke:#80ff00;}
		.yellow_term{font-family:arial;text-anchor: middle;font-size:40px; font-weight:700; fill:#ffff00; stroke-width:0; stroke:#ffff00;}
		.lampa_gray{fill:#A7A7A5; stroke-width:0; font-family:arial;text-anchor: middle;font-size:40px; font-weight:700; stroke:#545452;}
		.lampa_green{fill:#80ff00; stroke-width:0; font-family:arial;text-anchor: middle;font-size:40px; font-weight:700; stroke:#80ff00;}
		.lampa_yellow{fill:#ffff00; stroke-width:0; font-family:arial;text-anchor: middle;font-size:40px; font-weight:700; stroke:#ffff00;}
		
		.num{fill:none; stroke:#ffffff; stroke-width:18; stroke-linecap:round;}
		.nolighted{fill:none; stroke:#ffffff; stroke-width:10; stroke-linecap:round;}
		.skala-circle{ fill:none; stroke:#ffffff; stroke-width:2;stroke-linecap:butt;stroke-linejoin:round;stroke-dasharray:1.7,1.7;}
		.sun{ fill:none; stroke:#ffffff; stroke-width:6;stroke-linecap:butt;stroke-linejoin:round;stroke-dasharray:2,8;}
		.icon{fill:#ffffff; stroke:#ffffff; stroke-width:0;}
		.rama{ fill:#000000; fill-opacity:0.5;}
		.rama2{ fill:#ffffff; fill-opacity:0;}
		.bg{ fill:#000000; stroke-width:0;}
		.bg-w{ fill:#ffffff; stroke-width:0;}
		.logoText{stroke:#7E6B48; fill:#8F6E3D; stroke-width:1;}
		.lift3{ stroke-width:2;}
		.str{fill:#000000; stroke:#ffffff; stroke-width:3;  stroke-linecap:round;}
		.st1 {fill:none;stroke:none;stroke-linecap:round;stroke-linejoin:round;stroke-width:0.75}
		.st2 {fill:#000000;font-family:Eras Bold ITC;font-size:4.99999em}
		.st3 {font-size:1em}
		.st4 {fill:#ff0000;font-family:Brush Script MT;font-size:1.5em}
		.st5 {fill:none;fill-rule:evenodd;font-size:12;overflow:visible;stroke-linecap:square;stroke-miterlimit:3}
		 ]]>
	</style>
		<desc>Термостат</desc>
<symbol id="bas"  width="400" height="400"  viewBox="0 0 400 400" >
	<rect
     y="0.88731968"
     x="1.7985159"
     height="141.02242"
     width="447.74619"
     id="rect7312"
     style="fill:#000000" /><g
     id="shape1-1"
     transform="translate(53.8583,-53.0079)"><title
       id="title11">Лист.1</title><desc
       id="desc13">VISIOBAS</desc><path
       id="rect15"
       d="m 0,104.697 354.33099,0 0,35.1761 -354.33099,0 z"
       style="fill:none;stroke:none;stroke-width:0.75;stroke-linecap:round;stroke-linejoin:round" /><g
       id="text17"
       style="font-size:59.99987793px;font-family:'Eras Bold ITC';fill:#000000"><path
         id="path7296"
         style="font-size:59.99987793px;font-family:'Eras Bold ITC';fill:#ffffff"
         d="M 17.564426,148.16 16.480443,144.58579 9.3320204,123.99013 3.7070318,108.16985 q 3.9843669,0.0586 7.0898292,0.0586 1.904293,0 5.976551,-0.0586 0.673826,2.60742 1.054685,3.95507 0.527343,1.75781 1.992183,6.35741 l 4.306632,13.85739 q 0.64453,2.16797 1.582028,5.65429 l 1.347654,-3.36914 10.224588,-22.38276 q 0.263672,-0.61524 0.585937,-1.40625 0.351561,-0.79101 1.083982,-2.66601 4.248038,0.0586 6.826158,0.0586 1.611325,0 6.386706,-0.0586 -2.988276,5.5664 -6.767565,13.00779 l -10.107401,20.03902 q -1.464841,2.92968 -3.281243,6.94334 -4.921865,-0.0586 -7.031236,-0.0586 -1.962887,0 -7.412094,0.0586 z" /><path
         id="path7298"
         style="font-size:59.99987793px;font-family:'Eras Bold ITC';fill:#ffffff"
         d="m 52.281152,148.16 q 1.699216,-23.52534 1.699216,-36.21086 l -0.0293,-3.77929 q 5.126942,0.0586 6.855455,0.0586 0.791014,0 6.298815,-0.0586 -0.527343,6.59178 -0.849608,12.48044 -0.410155,8.20311 -0.585936,15.35154 -0.175781,7.11912 -0.175781,12.15817 l -6.005847,-0.0586 q -1.757809,0 -7.207017,0.0586 z" /><path
         id="path7300"
         style="font-size:59.99987793px;font-family:'Eras Bold ITC';fill:#ffffff"
         d="m 72.32017,147.54477 q -0.380859,-6.24022 -0.878905,-9.99021 3.281244,1.46484 5.830067,2.05077 2.578119,0.55664 4.511709,0.55664 2.548823,0 4.042961,-0.73242 1.523434,-0.76171 1.523434,-2.22656 0,-0.49804 -0.146484,-0.93749 -0.146484,-0.46875 -0.556639,-1.02539 -0.410156,-0.58594 -1.171873,-1.25976 l -5.507801,-4.80468 q -1.93359,-1.64062 -2.695307,-2.37304 -1.552731,-1.49414 -2.431636,-2.7832 -0.849608,-1.28906 -1.259763,-2.60742 -0.380859,-1.34765 -0.380859,-2.84179 0,-1.78711 0.615234,-3.48632 0.644529,-1.72851 1.904293,-3.22265 1.259763,-1.49414 3.339836,-2.57812 2.080074,-1.08398 4.453116,-1.46484 2.373042,-0.41016 4.892569,-0.41016 4.951161,0 10.781228,1.14258 0.08789,2.02148 0.205077,3.72069 0.117188,1.66992 0.55664,5.88866 -2.695307,-1.08398 -4.921865,-1.49413 -2.226558,-0.43946 -3.837883,-0.43946 -2.285152,0 -3.808586,0.84961 -1.494138,0.84961 -1.494138,2.10937 0,0.58594 0.234375,1.14258 0.234375,0.55664 0.878904,1.31836 0.64453,0.73242 1.699216,1.64062 1.054685,0.8789 3.31054,2.63671 l 2.109371,1.66992 q 0.937498,0.76172 2.02148,1.8457 1.083982,1.08398 1.874996,2.13867 0.791014,1.05468 1.201169,1.93359 0.439453,0.8789 0.64453,1.7871 0.205074,0.87891 0.205074,1.90429 0,2.63672 -1.259759,5.03906 -1.259763,2.37304 -3.574211,3.92577 -2.314449,1.52343 -5.097646,2.13867 -2.753901,0.61523 -5.830067,0.61523 -4.746084,0 -11.982397,-1.37695 z" /><path
         id="path7302"
         style="font-size:59.99987793px;fill:#ffffff"
         d="m 105.95292,148.16 q 1.69922,-23.52534 1.69922,-36.21086 l -0.0293,-3.77929 q 5.12694,0.0586 6.85545,0.0586 0.79102,0 6.29882,-0.0586 -0.52734,6.59178 -0.84961,12.48044 -0.41015,8.20311 -0.58593,15.35154 -0.17579,7.11912 -0.17579,12.15817 l -6.00584,-0.0586 q -1.75781,0 -7.20702,0.0586 z" /><path
         id="path7304"
         style="font-size:59.99987793px;fill:#ffffff"
         d="m 150.54267,107.40813 q 4.68749,0 9.02342,1.25977 4.33593,1.25976 7.58787,4.04296 3.25195,2.7539 4.86328,6.35741 1.61132,3.6035 1.61132,8.29099 0,4.92187 -1.78711,9.05272 -1.7578,4.10155 -5.09764,6.97264 -3.33984,2.87109 -7.96874,4.21874 -4.62889,1.31836 -9.63865,1.31836 -4.95116,0 -9.49217,-1.28906 -4.541,-1.31836 -7.91014,-4.21874 -3.33983,-2.92968 -4.74608,-6.50389 -1.40625,-3.57421 -1.40625,-7.93944 0,-6.416 2.95898,-11.24998 2.98828,-4.86327 8.81834,-7.58787 5.85937,-2.72461 13.18357,-2.72461 z m -0.52734,8.81834 q -3.36914,0 -6.09374,1.66992 -2.7246,1.64063 -4.18945,4.5996 -1.46484,2.92968 -1.46484,6.29882 0,3.10546 1.31836,5.68358 1.34765,2.57812 4.07226,4.04296 2.7246,1.43555 5.77147,1.43555 3.25195,0 5.94725,-1.61133 2.72461,-1.64062 4.13085,-4.5703 1.43555,-2.95898 1.43555,-6.18163 0,-3.13476 -1.31836,-5.77147 -1.31835,-2.66601 -3.86718,-4.13085 -2.54882,-1.46485 -5.74217,-1.46485 z" /><path
         id="path7306"
         style="font-size:89.99981689px;font-family:'Brush Script MT';fill:#ff0000"
         d="m 200.18612,118.45303 -2.2412,2.63672 q 3.91112,0.35156 6.98729,0.96679 3.07616,0.57129 5.66893,1.31836 2.63671,0.70312 4.61425,1.49414 6.94334,2.90038 6.94334,8.08592 0,3.16405 -2.90038,6.19627 -2.90039,3.03222 -7.55858,5.40527 -4.61425,2.37304 -9.53611,3.69139 -4.87792,1.36231 -8.87694,1.36231 -6.67967,0 -10.41502,-2.46094 -3.73534,-2.50487 -3.73534,-6.81151 0,-2.98827 2.28515,-7.03123 2.28515,-4.04296 7.07518,-10.06346 -3.60351,-0.17578 -5.09764,-1.05468 -1.49414,-0.92285 -1.49414,-2.54883 0,-1.01074 0.57129,-1.53808 0.57129,-0.52734 1.53808,-0.74707 0.96679,-0.26367 3.6914,-0.61523 2.76855,-0.35156 7.07518,-0.87891 4.79003,-5.88866 8.56932,-8.83299 3.82323,-2.98827 8.17381,-3.42772 0.35156,-0.0439 0.74707,-0.0439 0.43945,0 0.43945,0.21973 0,0.26367 -1.01074,1.40625 -0.96679,1.14257 -3.208,3.64745 -2.19726,2.50488 -5.22948,5.9326 8.2617,-1.09863 13.49118,-2.50487 5.27343,-1.4502 7.95409,-3.42773 2.68066,-1.97754 2.68066,-4.39452 0,-2.94433 -2.85644,-4.26269 -2.85644,-1.318357 -8.7451,-1.318357 -3.25195,0 -7.47069,0.659179 -4.1748,0.659178 -7.60253,1.494138 -3.38378,0.83496 -6.06444,1.80175 -2.63671,0.92285 -2.63671,1.36231 0,0.13183 0.26367,0.26367 2.15332,0.79101 2.15332,1.31835 0,0.70313 -6.59179,2.72461 -6.59178,1.97753 -8.87693,1.97753 -1.62597,0 -1.62597,-1.62597 0,-1.93359 3.51561,-6.94335 3.55957,-5.053697 6.45995,-6.459944 1.01074,-0.483398 4.70214,-1.538083 3.6914,-1.054685 8.08592,-2.02148 4.43847,-0.966795 9.00877,-1.625973 4.57031,-0.659179 8.08592,-0.659179 8.30565,0 12.48045,2.988275 4.17479,2.94433 4.17479,7.426743 0,3.032221 -1.93359,5.844711 -1.88964,2.8125 -5.9326,5.31738 -4.04296,2.50487 -10.54686,4.39452 -6.45994,1.88964 -15.24899,2.90038 z m -4.65819,5.66894 q -2.28515,2.7246 -4.08691,4.83397 -1.75781,2.06543 -2.54882,3.38378 -0.74707,1.27441 -0.74707,2.59277 0,2.10937 2.15332,3.77929 2.19726,1.62597 6.28416,1.62597 3.77929,0 8.04198,-1.31835 4.30663,-1.3623 7.20702,-3.51562 2.94433,-2.15332 2.94433,-4.35058 0,-1.88964 -2.15332,-3.12011 -2.15332,-1.23046 -6.54784,-2.15331 -4.39452,-0.9668 -10.54685,-1.75781 z" /><path
         id="path7308"
         style="font-size:89.99981689px;font-family:'Brush Script MT';fill:#ff0000"
         d="m 264.34614,130.05457 q -5.27342,0.17578 -7.73436,0.17578 -3.77929,0 -10.45896,-0.17578 -1.40625,1.53808 -3.42773,3.64746 -2.02148,2.06542 -3.82323,3.86717 -1.80176,1.75781 -3.12011,3.03223 -1.27441,1.23046 -2.10937,2.06542 -4.87792,4.74608 -6.37206,6.19628 -1.45019,1.45019 -3.07617,2.59277 -1.62597,1.18652 -2.98827,1.18652 -1.53808,0 -1.53808,-1.40625 0,-1.53808 2.19726,-4.74608 2.19726,-3.20801 4.96581,-5.66894 2.76855,-2.46093 4.52635,-2.46093 0.4834,0 1.36231,0.43945 l 8.34959,-8.92088 q -1.58203,-0.21973 -4.13085,-0.26367 -2.54882,-0.0879 -3.42773,-0.39551 -0.8789,-0.30761 -0.8789,-1.49414 0,-1.88964 4.04296,-5.9326 2.19726,-2.24121 4.13085,-2.85644 1.93359,-0.61523 7.3828,-0.65918 -3.20801,0.43945 -4.57031,1.05469 -1.31835,0.57129 -1.45019,1.75781 1.27441,0 2.3291,0 1.09863,0 2.81249,0 1.75781,-0.0439 2.59277,-0.0879 7.20702,-7.03124 13.09568,-12.21678 5.88866,-5.22948 12.39255,-9.887671 6.54784,-4.702139 13.93063,-8.613264 1.4502,1.889644 1.4502,3.95507 0,1.713864 -1.14258,3.95507 -1.09863,2.241205 -4.74608,8.437485 -3.60351,6.15233 -7.33886,13.09567 1.23047,0 2.02148,0.0439 0.83496,0 1.75781,0.0439 2.50488,0 3.03222,0.0879 0.57129,0.0879 0.57129,0.8789 0,0.35156 -0.70312,1.27441 -0.65918,0.87891 -2.37304,2.98828 -1.71387,2.06542 -3.33984,4.21874 l -6.45995,0.52734 q -5.14159,9.66795 -5.14159,10.89842 0,1.80175 1.88965,1.80175 0.92284,0 7.64646,-3.86718 l -0.35156,2.3291 q -3.60351,2.7246 -5.62499,4.30663 -1.97753,1.53808 -3.47167,2.59277 -1.45019,1.01074 -2.68066,1.49413 -1.18652,0.52735 -2.41699,0.52735 -1.45019,0 -2.85643,-1.3623 -1.40625,-1.31836 -1.40625,-3.77929 0,-1.01074 0.74707,-2.85644 0.74707,-1.88965 1.58203,-3.60351 0.8789,-1.71387 4.35057,-8.21776 z m -8.30564,-9.97556 14.23825,-0.26368 q 2.50488,-4.26268 4.04296,-6.8994 1.58203,-2.63671 3.42773,-5.71287 1.88964,-3.12012 3.208,-5.27343 1.3623,-2.153317 2.98827,-4.877921 -3.16405,1.977535 -6.45995,4.394521 -3.29589,2.41699 -7.42674,5.84472 -4.13085,3.38378 -7.33885,6.32811 -3.208,2.90038 -6.67967,6.45995 z" /><path
         id="path7310"
         style="font-size:89.99981689px;font-family:'Brush Script MT';fill:#ff0000"
         d="m 328.50616,135.45983 q -1.09863,-2.02148 -3.29589,-3.64745 -2.19726,-1.62597 -4.96581,-2.59277 -2.7246,-1.01074 -5.71288,-1.49414 -8.87693,-1.31835 -16.56735,-5.75682 -0.65918,-0.35156 -1.40625,-1.49414 -0.74706,-1.14257 -0.74706,-2.19726 0,-3.86718 1.27441,-7.73436 1.31835,-3.91112 3.33983,-6.10838 3.25195,-3.64746 11.68943,-6.372061 8.48143,-2.724603 19.07223,-2.724603 6.32811,0 9.75584,0.966794 3.47167,0.966795 3.47167,2.988276 0,3.295894 -0.92285,5.097644 -0.8789,1.80176 -1.93359,2.41699 -1.01074,0.57129 -3.6035,1.58203 -2.76855,0.96679 -4.83398,2.02148 -2.02148,1.05468 -3.47167,2.02148 -1.45019,0.96679 -1.80176,0.96679 -0.43945,0 -0.43945,-0.35156 0,-0.74707 1.53808,-2.24121 1.58203,-1.53808 3.86718,-2.68065 2.41699,-1.27442 2.41699,-1.62598 0,-0.57129 -2.68066,-0.57129 -8.12986,0 -15.02926,1.4502 -6.8994,1.45019 -10.89842,3.82323 -3.95507,2.37304 -3.95507,4.83398 0,1.53808 1.62597,2.19726 1.66992,0.61523 7.29491,2.10937 5.62499,1.49414 10.06346,3.42772 6.37205,2.72461 9.44822,5.66894 3.07617,2.94433 3.07617,6.59178 0,2.50488 -1.23047,5.0537 -1.18652,2.50488 -3.51562,4.61425 -2.3291,2.10937 -5.36132,3.47167 -2.59276,1.09863 -6.54783,2.06543 -3.91113,0.96679 -8.52538,1.49414 -4.5703,0.57128 -8.7451,0.57128 -7.69041,0 -12.39255,-1.45019 -4.65819,-1.45019 -4.65819,-4.39452 0,-1.31836 1.58203,-4.08691 1.58202,-2.81249 3.73534,-3.77928 1.88964,-0.74707 3.64745,-0.83496 1.75781,-0.13184 1.75781,0.3955 0,0.13184 -0.13183,0.26367 -0.13184,0.13184 -0.30762,0.21973 -0.17578,0.0879 -0.35156,0.17578 -0.87891,0.35156 -1.45019,0.57129 -0.52735,0.17578 -0.87891,0.39551 -0.30762,0.17578 -0.30762,0.52734 0,0.92285 9.09667,0.92285 7.91014,0 12.96384,-0.57129 5.0537,-0.57129 8.92088,-2.06542 3.86718,-1.49414 7.03123,-4.13086 z" /></g></g>
		 
</symbol>	
<symbol id="str_b"  width="100" height="100" viewBox="0 0 100 100" >
	<rect width="45" height="45" x="8" y="30" stroke="#000000" />
	<path d="M15,45 L30,60 M30,60  45,45"  />
</symbol>
<symbol id="str_top"  width="100" height="100" viewBox="0 0 100 100" >
<rect width="45" height="45" x="8" y="18"  stroke="#000000" />
	<path d="M15,45 L30,30 M30,30  45,45"  />
</symbol>

<symbol id="button"  width="100" height="100" viewBox="0 0 100 100" >
	  <rect width="30" height="30" x="40" y="40" rx="5" ry="5" />
</symbol>
<symbol id="shkala"  width="440" height="440" viewBox="0 0 440 440">
	<circle cx="255" cy="365" r="25" class="skala-circle"  />
	<circle cx="219" cy="365" r="4.6" stroke-width="1" class="icon" />
	<circle cx="205" cy="365" r="4.4" stroke-width="1" class="icon" />
	<circle cx="191.5" cy="365" r="4.2" stroke-width="1" class="icon" />
	<circle cx="178.5" cy="365" r="4" stroke-width="1" class="icon" />
	<circle cx="166" cy="365" r="3.8" stroke-width="1" class="icon" />
	<circle cx="154" cy="365" r="3.6" stroke-width="1" class="icon" />
	<circle cx="142.5" cy="365" r="3.4" stroke-width="1" class="icon" />
	<circle cx="131.5" cy="365" r="3.2" stroke-width="1" class="icon" />
	<circle cx="121" cy="365" r="3" stroke-width="1" class="icon" />
	<circle cx="111" cy="365" r="2.8" stroke-width="1" class="icon" />
	<circle cx="101.5" cy="365" r="2.6" stroke-width="1" class="icon" />
	<circle cx="291" cy="365" r="4.6" stroke-width="1" class="icon" />
	<circle cx="305" cy="365" r="4.4" stroke-width="1" class="icon" />
	<circle cx="318.5" cy="365" r="4.2" stroke-width="1" class="icon" />
	<circle cx="331.5" cy="365" r="4" stroke-width="1" class="icon" />
	<circle cx="344" cy="365" r="3.8" stroke-width="1" class="icon" />
	<circle cx="356" cy="365" r="3.6" stroke-width="1" class="icon" />
	<circle cx="367.5" cy="365" r="3.4" stroke-width="1" class="icon" />
	<circle cx="378.5" cy="365" r="3.2" stroke-width="1" class="icon" />
	<circle cx="389" cy="365" r="3" stroke-width="1" class="icon" />
	<circle cx="399" cy="365" r="2.8" stroke-width="1" class="icon" />
	<circle cx="408.5" cy="365" r="2.6" stroke-width="1" class="icon" />
</symbol>

<symbol id="sun"  width="400" height="400" viewBox="0 0 400 400">
	<circle cx="255" cy="365" r="16" class="sun"  />
	<circle cx="255" cy="365" r="10"  class="icon"  />
</symbol>


<symbol id="rama-black"  width="496.062" height="496.062" viewBox="0 0 496.062 496.062">
<rect x="0" y="0" width="496.062" height="496.062" fill="#000000"  />
</symbol>

<desc>Форма кнопки</desc>
	<symbol id="knopka_circle"  viewBox="0 0 160 160" >
		<circle cx="60" cy="60" r="55" fill="#212120"  stroke-width="2" />
		<path d="M10,83 L60,150 110,83" fill="#212120" stroke-width="2" />
	</symbol>
	<desc>Лампочка</desc>
	<symbol id="lampa"  viewBox="0 0 400 400" >
		<path d="M147,265 C127,228 99,193 103,144 117,15 292,27 302,142 309,198 281,223 255,265 285,226 323,196 323,133
		323,86 274,23 204,23 134,23 81,79 81,151 81,193 120,233 147,265 z" />
		<path d="M176,238 L165,169 C163,155 165,152 175,148 193,143 205,145 226,147 237,150 242,155 240,166 L227,238" />
		<rect x="142" y="272" rx="7" ry="7" height="30" width="120" />
		<rect x="152" y="310" rx="5" ry="5" height="34" width="100" />
		<ellipse cx="202" cy="343" rx="50" ry="25" />
		<path d="M183,371 C197,374 209,374 222,371 221,387 186,387 183,371 z" />
	</symbol>
	<symbol id="atn_trgl"  viewBox="0 0 8766 8766" >
		<path d="M1226.4,4672  C1953.2,5478.8 2213.2,6358.8 2266.4,7105.6 2333.2,7852 2193.2,8478.8 2053.2,8765.6 L7920,8765.6
		8028,8486 6854,8486 6854,8056 4916,8056 4916,8692 2864,8692 2864,8056 2776,8056 C2890,7242 2760,6462 2464,5688 
		L2100,5884 C1932,5440 1668,5012 1336,4624 z" 
		fill="#A7A7A5" stroke="#A7A7A5" stroke-width="5" />
		<path d="M2801,8052 C2915,7242 2785,6462 2491,5688" class="contur-fat2" />
		<path d="M2538,5620 L2090,5862 " class="contur-fat2" />
		<path d="M2117,5859 C1948,5415 1680,4987 1348,4599 " class="contur-fat2" />
	</symbol>
	<symbol id="sink"  viewBox="0 0 60 60" >
		<rect x="1" y="1"  height="52"  width="59" rx="6" class="border" />
		<rect x="5" y="5"  height="44"  width="51" rx="6" class="border" />
		<circle cx="24" cy="51" r="2.5" class="border" />
		<circle cx="36" cy="51" r="2.5" class="border" />
		<circle cx="30" cy="31" r="4" class="border" />
		<rect x="28.5" y="34"  height="16"  width="3" class="border-fill" />
	</symbol>
	<symbol id="sink2"  viewBox="0 0 50 50" >
		<ellipse cx="18" cy="24" rx="15" ry="21" class="border" />
		<path d="M3,24 L12,24 M15,24 L21,24" class="border2" />
		<path d="M13.5,15 L13.5,22 M13.5,26 L13.5,33" class="border" />
	</symbol>
	
	<symbol id="shower"  viewBox="0 0 120 120" >
		<rect x="1" y="1"  height="118"  width="118" class="border" />
		<rect x="11" y="11"  height="98"  width="98" class="border" />
		<path d="M 26,93 L85,32" class="border" />
		<path d="M 23,22 L84,22" class="border" />
		<path d="M 95,93 L95,32" class="border" />
		<circle cx="98" cy="21" r="5" class="border" />
	</symbol>
	<symbol id="bide"  viewBox="0 0 40 40" >
		<rect x="16.5" y="17"  height="5"  width="7" class="border" />
		<ellipse cx="20" cy="20" rx="18" ry="15" class="border" />
		<ellipse cx="20" cy="20" rx="12" ry="9" class="border" />
		<path d="M3.5,13.5 L6,3 33,3 36.5,13.5" class="border" />
	</symbol>
	<symbol id="tualet2"  viewBox="0 0 80 80" >
		<path d="M25,51 C-4,-20 87,-7 53,51 z" class="border" />
		<path d="M16,78 C13,73 14,69 13,64 13,56 18,56.5 25,58 36,61 45.5,59 54,57.5 60,56 67,56 64,67 L62,78 z" class="border" />
		<circle cx="39" cy="68" r="2" fill="none" stroke="#A7A7A5" stroke-width="1" />
		<path d="M21,39 L21,58 M58,40 L58,57" class="border" />
	</symbol>
	<symbol id="tualetIn"  viewBox="0 0 95 95" >
		<rect x="1" y="75"  height="20"  width="6" class="border" />
		<rect x="2.5" y="9"  height="66"  width="3" class="border" />
		<rect x="85" y="75"  height="20"  width="6" class="border" />
		<rect x="86.5" y="9"  height="66"  width="3" class="border" />
		<path d="M17.5,94 L17.5,76 C17.5,64 22,64 29,64 L63,64 C71,64 76,64 76,76 L76,94 z" class="border" />
		<path d="M46.5,57 C8,57 29.5,2 46.5,2  63.5,2 85.5,57 46.5,57 z" class="border" />
		<path d="M31.5,64 L31.5,52 M61.5,64 L61.5,52" class="border" />
	</symbol>
	<symbol id="bath"  viewBox="0 0 110 110" >
		<rect x="2" y="2" height="105"  width="105" class="border" />
		<rect x="7" y="7" height="95"  width="95" rx="6" class="border" />
		<path d="M53,79 L53,105 M56,79 L56,105" class="border"  />
		<circle cx="41" cy="104" r="2.5" class="border"/>
		<circle cx="67" cy="104" r="2.5" class="border" />
	</symbol>
	<symbol id="bath1"  viewBox="0 0 220 220" >
		<rect x="1" y="1"  height="212"  width="86" class="border" />
		<rect x="11" y="9" rx="30" ry="30"  height="196"  width="66" class="border" />
		<rect x="24" y="21" rx="24" ry="18"  height="148"  width="40" class="border" />
		<circle cx="44" cy="40" r="3" class="border" />
	</symbol>
	<symbol id="auto"  viewBox="0 0 700 700" >
		<path d="m 45,55 c -17,33 -29,72 -5,164 34,19 467,60 605,8 C 660,142 656,87 638,52 456,6 249,34 45,55 Z" class="border" />
		<path d="m 206,53 c -42,69 -22,124 0,179 148,-76 328,-1 426,-22 20,-39 2,-135 2,-135 C 597,47 350,132 206,53 Z" class="border" />
		<path d="M 276,206 C 259,119 270,104 276,77" class="border" />
		<path d="m 489,81 c 17,44 8,84 0,124" class="border" />
		<path d="m 570,70 c 15,21 38,83 -2,144" class="border" />
		<path d="M 302,52 C 388,40 454,46 514,52 533,69 304,94 286,31" class="border" />
		<path d="m 290,249 c 8,-54 207,-37 226,-24 -23,7 -61,12 -216,8" class="border" />
		<path d="m 290,41 c 101,4 79,-18 338,19" class="border" />
		<path d="m 295,240 c 27,2 225,13 335,-19" class="border" />
		<path d="m 45,55 c -17,33 -29,72 -5,164 34,11 70,15 153,14 -49,-118 3,-182 3,-182 -2,-7 -76,-3 -151,4 z" class="border" />
		<path d="m 10,116 0,5.5 C 64,109 119,101 176,95 l 1.5,-4.5 C 117,96 61,104 10,116.5 Z" class="border" />
		<path d="m 8,160 1.5,6 c 45,10 109,16 168,23 l -2,-5.5 C 140,179 69,175 8.5,160 Z" class="border" />
		<path d="M 42.5,47 C -10,121 2,180 41.5,232.5" class="border" />
		<path d="M 40.5,183.5 C 34,199 62,234 77,218 87,184 50,172 40.5,183.5 Z" class="border" />
		<path d="M 40,99 C 64,116 88,79 74,61 61,47 30,82 40,99 Z" class="border" />
	</symbol>
	<symbol id="window"  viewBox="0 0 120 120" >
		<rect x="2" y="2"  height="8"  width="116" class="border2" />
	</symbol>
	<radialGradient id="exclame">
		<stop offset="0.25" stop-color="white"/>
		<stop offset="0.75" stop-color="yellow"/>
	</radialGradient>	
	<desc>Знак аварии</desc>
	<symbol id="atn"  viewBox="0 0 100 100" >
		<path d="M5 95  50 5  95 95z"  style="stroke:#EF9248;stroke-width:5px;stroke-linejoin: round; fill:url(#exclame)"/>
		<text x="50" y="80" style="font-family:arial;text-anchor: middle;font-size:52px; font-weight:700; fill:black;" >!</text>
	</symbol>
	
	
	
	
	<desc>Кнопки этажей</desc>
	<symbol id="et_2"  viewBox="0 0 100 100" >
		<circle cx="50" cy="50" r="45" fill="none"  stroke-width="5" />
		<text x="41" y="68" style="font-family:arial;text-anchor: middle;font-size:52px; font-weight:700;" >-2</text>
	</symbol>
	<symbol id="et_1"  viewBox="0 0 100 100" >
		<circle cx="50" cy="50" r="45" fill="#41413F"  stroke-width="5" />
		<text x="41" y="68" style="font-family:arial;text-anchor: middle;font-size:52px; font-weight:700;" >-1</text>
	</symbol>
	<symbol id="et_0"  viewBox="0 0 100 100" >
		<circle cx="50" cy="50" r="45" fill="#41413F"  stroke-width="5" />
		<text x="50" y="68" style="font-family:arial;text-anchor: middle;font-size:52px; font-weight:700;" >0</text>
	</symbol>
	<symbol id="et1"  viewBox="0 0 100 100" >
		<circle cx="50" cy="50" r="45" fill="#41413F"  stroke-width="5" />
		<text x="50" y="68" style="font-family:arial;text-anchor: middle;font-size:52px; font-weight:700;" >1</text>
	</symbol>
	<symbol id="et2"  viewBox="0 0 100 100" >
		<circle cx="50" cy="50" r="45" fill="#41413F"  stroke-width="5" />
		<text x="50" y="68" style="font-family:arial;text-anchor: middle;font-size:52px; font-weight:700;" >2</text>
	</symbol>
	<symbol id="et3"  viewBox="0 0 100 100" >
		<circle cx="50" cy="50" r="45" fill="#41413F"  stroke-width="5" />
		<text x="50" y="68" style="font-family:arial;text-anchor: middle;font-size:52px; font-weight:700;" >3</text>
	</symbol>
	<symbol id="et4"  viewBox="0 0 100 100" >
		<circle cx="50" cy="50" r="45" fill="#41413F"  stroke-width="5" />
		<text x="50" y="68" style="font-family:arial;text-anchor: middle;font-size:52px; font-weight:700;" >4</text>
	</symbol>
	
	<symbol id="prohod"  viewBox="0 0 120 120" >
		<rect x="1" y="1"  height="5"  width="116"  fill="none" stroke="#A7A7A5" stroke-width="1" />
		<path d="M0,7 C4,46 27,112.4 116,117" fill="none" stroke="#A7A7A5" stroke-width="1" />
	</symbol>
	<symbol id="rect"  viewBox="0 0 100 100" >
		<rect x="0" y="0"  height="100"  width="100"  fill="#A7A7A5" />
	</symbol>
	<symbol id="prohod_h"  viewBox="0 0 120 120" >
		<rect x="1" y="1"  height="116"  width="5"  fill="none" stroke="#A7A7A5" stroke-width="1" />
		<path d="M7,0 C46,4 112.4,27 117,116" fill="none" stroke="#A7A7A5" stroke-width="1" />
	</symbol>
	<symbol id="lift_icon"  viewBox="0 0 100 100" >
		<circle cx="50" cy="12" r="10" fill="#A7A7A5" />
		<path d="M41,49 L49,49 49,14 41,14 z" fill="#A7A7A5"  />
		<path d="M42,36 L70,40 70,35 42,30 z" fill="#A7A7A5"  />
		<path d="M41,50 L73,54 77,50 42,43 z" fill="#A7A7A5"  />
		<path d="M71,50 L77,50  80,73 91,72 92,80 76,82 z" fill="#A7A7A5" />
		<circle cx="42" cy="65" r="25" fill="none" stroke="#A7A7A5" stroke-width="7"  stroke-dasharray="60%" stroke-dashoffset="310%"/>
		<circle cx="42" cy="65" r="25" fill="none" stroke="#A7A7A5" stroke-width="7"  stroke-dasharray="75% 80%" stroke-dashoffset="0%"/>
	</symbol>
	<symbol id="auto_icon"  viewBox="0 0 135 135" >
		<rect x="2" y="2"  height="130"  width="130" class="contur-4" />
		<use xlink:href="#lift_icon"  x="15" y="20" width="100" height="100" />
	</symbol>
	<symbol id="lift" viewBox="0 0 320 320" >
		<path d="M31,27 L31,184" class="lift" fill="none"/>
		<path d="M34,185 L34,42 50,42 50,48" class="lift" />
		<path d="M34,185 L34,42 50,42 50,185 z"   stroke-width="0" />
		<path d="M34,121 L44,121 44,71 39,71" class="lift" />
		<path d="M39,178 L39,121" class="lift2"  />
		<path d="M40,121 L40,71" class="lift2"  />
		<path d="M6,185 L6,176 15,176 15,178 26,178 26,185" class="lift"  />
		<path d="M6,184 L26,184" class="lift2"   />
		<path d="M26,178 L21,178 21,121 26,121 z" class="lift"  stroke-width="0"  />
		<path d="M20.5,121 L25.5,121 25.5,178" class="lift2" fill="none"   />
		<path d="M26,120 L26,27 13,27 13,120" class="lift"  />
		<path d="M16,120 L21,120 21,70 16,70 z" class="lift"  />
		<path d="M9,58 L9,74 15,74 15,58" class="lift" />
		<path d="M14,27 L14,74" class="lift2"  />
		<path d="M8.5,58 L15,58" class="lift2"  />
		<path d="M50,182 L298,182 298,47 50,47 z"  stroke-width="0"  />
		<path d="M50,182 L298,182 298,47" class="lift"  />
		<path d="M46,48 L46,74 51,74" class="lift"  />
		<path d="M50,74 L50,51 295,51 295,180.5" class="lift2" fill="none" />
		<path d="M50,180.5 L50,51 295,51 295,180.5" class="lift2"  stroke-width="0"  />
		<path d="M295,180 L178,180 M151,180 L50,180" class="lift"  />
		<path d="M298,48 L45.5,48"  class="lift2"  />
		<path d="M50,185 L34,185 34,179 44,179 44,175 50,175" class="lift"  />
		<path d="M49,185 L49,175" class="lift2" />
		<path d="M151,182 L151,176 178,176 178,182" class="lift" />
		<path d="M165,184 L165,192" class="lift2" fill="none"  />
		<path d="M157,194 L172,194 172,191 157,191 z" class="lift3"  />
		<path d="M165,48 L165,39" class="lift2"  fill="none" />
		<path d="M157,39 L173,39 173,36 157,36 z" class="lift"  />
		<path d="M183,31 L291,31 291,17 183,17 z" class="lift" />
	</symbol>
	<symbol id="lift2" viewBox="0 0 320 320" >
	<path d="M31,27 L31,184" class="lift" fill="none"/>
		<path d="M34,185 L34,42 50,42 50,48" class="lift" />
		<path d="M34,185 L34,42 50,42 50,185 z"   stroke-width="0" />
		<path d="M34,121 L44,121 44,71 39,71" class="lift" />
		<path d="M39,178 L39,121" class="lift2"  />
		<path d="M40,121 L40,71" class="lift2"  />
		<path d="M6,185 L6,176 15,176 15,178 26,178 26,185" class="lift"  />
		<path d="M6,184 L26,184" class="lift2"   />
		<path d="M26,178 L21,178 21,121 26,121 z" class="lift"  stroke-width="0"  />
		<path d="M20.5,121 L25.5,121 25.5,178" class="lift2" fill="none"   />
		<path d="M26,120 L26,27 13,27 13,120" class="lift"  />
		<path d="M16,120 L21,120 21,70 16,70 z" class="lift"  />
		<path d="M9,58 L9,74 15,74 15,58" class="lift" />
		<path d="M14,27 L14,74" class="lift2"  />
		<path d="M8.5,58 L15,58" class="lift2"  />
		<path d="M50,182 L183,182 183,47 50,47 z"  stroke-width="0"  />	
		<path d="M50,182 L183,182 183,47" class="lift"  />
		<path d="M46,48 L46,74 51,74" class="lift"  />
		<path d="M50,74 L50,51 180,51 180,180.5" class="lift2" fill="none" />
		<path d="M50,180.5 L50,51 180,51 180,180.5" class="lift2"  stroke-width="0"  />
		<path d="M180,180 L178,180 M151,180 L50,180" class="lift"  />
		<path d="M183,48 L45.5,48"  class="lift2"  />
		<path d="M50,185 L34,185 34,179 44,179 44,175 50,175" class="lift"  />
		<path d="M49,185 L49,175" class="lift2" />
		<path d="M151,182 L151,176 178,176 178,182" class="lift" />
		<path d="M165,184 L165,192" class="lift2" fill="none"  />
		<path d="M157,194 L172,194 172,191 157,191 z" class="lift3"  />
		<path d="M165,48 L165,39" class="lift2"  fill="none" />
		<path d="M157,39 L173,39 173,36 157,36 z" class="lift"  />
		<path d="M121,31 L173,31 173,17 121,17 z" class="lift" />
	</symbol>
</defs>	
<g>
	<desc>Главный контур</desc>
	<path d="M2084,8785 L2868,8785 2868,8064 2812,8064 C2952,7329 2720,6065 2466,5666 L2024,5924 C2476,7045 2296,8257 2084,8785 z" fill="#A7A7A5" />
	<path d="M2093,5858 L2525,5607" class="contur-fat46" />
	<path d="M2044,5974 C1822,5506 1582,5040 1142,4565 L2252,3924 2268,3950 2236,3984 2312,3952 2288,3986 2306,4014 1346,4574
	C1660,4972 1880,5226 2144,5866" fill="#A7A7A5" />
	<path d="M1025,4773 L3518,3320" class="contur-24" />
	<path d="M3528,3314 L5680,2084 H5702" class="contur-24" />
	<path d="M5678,2078 H6267 V1736" class="contur-40" />
	<path d="M6272,1750 V1365" class="contur-30" />
	<path d="M6267,1380 V855 H8445" class="contur-40" />
</g>
<g>
	<desc>Комната 239</desc>
	<path d="M2632,6120 H3867 V5975" class="contur-24" />
	<path d="M3867,5860 V5368 L3791,5239 3282,5530 3136,5272" class="contur-24" />
	<path d="M2092,5897 L3197,5238" class="contur-24" />
	<path d="M3298,5180 L3463,5080" class="contur-24" />
	<path d="M3565,5025 L4260,4620" class="contur-24" />
	<use xlink:href="#prohod" width="120" height="120" transform="scale(1,-1) translate(3738,-5977)"/>
</g>
<g>
	<desc>Комната 231</desc>
	<use xlink:href="#prohod" width="108" height="108" transform="scale(-1,-1) translate(-3985,-6498)"/>
	<use xlink:href="#prohod" width="108" height="108" transform="scale(-1,1) translate(-3985,6286)"/>
	<use xlink:href="#prohod" width="97" height="97" transform="scale(1,-1) translate(5145,-7492)"/>
	<use xlink:href="#prohod" width="97" height="97" transform="scale(1,1) translate(5145,7302)"/>
</g>
<g>
	<desc>Комната 258</desc>
	<path d="M2730,6516 H2860 M2976,6516 H3436" class="contur-18" />
	<path d="M3436,6118 V6355" class="contur-18" />
	<path d="M3436,6472 V6560" class="contur-18" />
	<path d="M3870,6122 V6286 M3870,6497 V6640" class="contur-18" />
	<use xlink:href="#prohod" width="121" height="121" transform="scale(1,-1) translate(3309,-6472)"/>
</g>
<g>
	<desc>Комната 203</desc>
	<path d="M3436,6678 V6918" class="contur-18" />
	<path d="M2802,6909 H2850 M2966,6909 H3435" class="contur-18" />
	<path d="M3170,6520 V6910" class="contur-18" />
	<use xlink:href="#prohod" width="123" height="123" transform="scale(1,1) translate(3308,6560)"/>
	<use xlink:href="#sink"  width="60" height="60" transform="scale(1,1) translate(3236,6642) rotate(90)" />
	<use xlink:href="#bath"  width="110" height="110" transform="scale(1,1) translate(3289,6791) rotate(90)" />
</g>
<g>
	<desc>Комната 256</desc>
	<path d="M3436,7243 V7427" class="contur-18" />
	<path d="M3436,7545 V7670" class="contur-18" />
	<use xlink:href="#prohod" width="123" height="123" transform="scale(1,-1) translate(3308,-7547)"/>
	<use xlink:href="#prohod" width="120" height="120" transform="scale(1,-1) translate(3610,-7422) rotate(90)"/>
</g>
<g>
	<desc>Комната 257</desc>
	<path d="M2825,7296 H3493 M3610,7296 H3660" class="contur-18" />
	<path d="M3427,7066 H3666" class="contur-18" />
	<path d="M3436,7066 V7125" class="contur-18" />
	<use xlink:href="#prohod" width="123" height="123" transform="scale(1,-1) translate(3308,-7243)"/>
	<use xlink:href="#prohod" width="123" height="123" transform="scale(1,-1) translate(3536,-7045)"/>
	<use xlink:href="#prohod" width="122" height="122" transform="scale(-1,-1) translate(-2858,-6644) rotate(90)"/>
</g>
<g>
	<desc>Комната 255</desc>
	<path d="M3436,7787 V7900 M3436,8020 V8060" class="contur-18" />
	<path d="M2830,7587 H3432" class="contur-18" />
	<path d="M2765,8052 H3375" class="contur-24" />
	<path d="M2765,8055 H3480" class="contur-18" />
	<path d="M3375,7875 H3210 V8048 H3375" class="contur-30" />
	<path d="M3366,7869 H3436" class="contur-18" />
	<path d="M2770,8048 H2913" class="contur-30" />
	<use xlink:href="#prohod" width="123" height="123" transform="scale(-1,-1) translate(-3564,-8020)"/>
	<use xlink:href="#prohod" width="123" height="123" transform="scale(1,1) translate(3308,7668)"/>
</g>
<g>
	<desc>Лифт ЛФ-9</desc>
	<use xlink:href="#lift2"  width="245" height="245" transform="scale(-1,1) translate(-3380,7880)"  class="lift-green" />
</g>
<g>
	<desc>Комната 252</desc>
	<path d="M2889,8076 V8676" class="contur-46" />
	<path d="M2850,8678 H4920" class="contur-50" />
	<path d="M4897,8670 V8076" class="contur-46" />
	<path d="M2885,8080 H3480" class="contur-8" />
	<path d="M3659,8060 V8080 H4324" class="contur-8" />
	<use xlink:href="#prohod" width="100" height="100" transform="scale(1,-1) translate(3655,-8160) rotate(90)"/>
	<use xlink:href="#prohod" width="80" height="80" transform="scale(-1,-1) translate(-3479,-8140) rotate(90)"/>
</g>
<g>
	<desc>Комната 253</desc>
	<path d="M3472,8660 V8278 H3833 M3948,8278 H4193" class="contur-20" />
	<path d="M4190,8050 V8116 M4190,8234 V8670" class="contur-20" />
	<use xlink:href="#prohod" width="120" height="120" transform="scale(-1,1) translate(-3833,8152) rotate(90)"/>
	<use xlink:href="#prohod" width="120" height="120" transform="scale(1,-1) translate(4063,-8233)"/>
</g>
<g>
	<desc>Комната 248</desc>
	<path d="M4190,8340 H4312 M4430,8340 H4880" class="contur-20" />
	<use xlink:href="#prohod" width="120" height="120" transform="scale(-1,-1) translate(-4312,-8468) rotate(90)"/>
</g>
<g>
	<desc>Комната 254</desc>
	<path d="M4530,8340 V8234 M4530,8115 V8055 H4885" class="contur-20" />
	<path d="M4530,8080 H4880" class="contur-8" />
	<use xlink:href="#prohod" width="120" height="120" transform="scale(1,-1) translate(4403,-8233)"/>
</g>
<g>
	<desc>Комната 206</desc>
	<path d="M4375,7525 H4455" class="contur-20" />
	<path d="M4630,7525 H5250" class="contur-20" />
	<use xlink:href="#prohod" width="100" height="100" transform="scale(-1,-1) translate(-4453,-7634) rotate(90)"/>
	<use xlink:href="#prohod" width="82" height="82" transform="scale(1,-1) translate(4630,-7615) rotate(90)"/>
</g>
<g>
	<desc>Комната 243</desc>
	<use xlink:href="#prohod" width="120" height="120" transform="scale(1,1) translate(5084,7070) rotate(90)"/>
</g>
<g>
	<desc>Комната 268</desc>
	<path d="M4375,6640 H4395" class="contur-20" />
	<path d="M4510,6640 H4595 V6587 H4780" class="contur-20" />
	<use xlink:href="#prohod" width="120" height="120" transform="scale(-1,-1) translate(-4394,-6768) rotate(90)"/>
</g>
<g>
	<desc>Комната 271</desc>
	<path d="M4895,6587 H5255" class="contur-20" />
	<path d="M5255,6496 V7303" class="contur-30" />
	<path d="M4758,6920 H5255" class="contur-20" />
	<path d="M4760,6585 V7195 H4967" class="contur-20" />
	<use xlink:href="#prohod" width="120" height="120" transform="scale(-1,-1) translate(-4779,-6714) rotate(90)"/>
</g>
<g>
	<desc>Комната 268</desc>
	<path d="M4368,6997 H4755" class="contur-20" />
</g>
<g>
	<desc>Комната 227</desc>
	<path d="M5255,6285 V6052" class="contur-30" />
	<path d="M4910,6585 V6487" class="contur-20" />
	<path d="M4910,6285 V6113 H5253" class="contur-20" />
	<path d="M5273,6043 V6285" class="contur-8" />
	<path d="M4975,5928 L5086,6086 H5275" class="contur-70" />
	<path d="M5042,5882 L5128,6005 H5353" class="contur-70" />
	<use xlink:href="#prohod" width="105" height="105" transform="scale(-1,1) translate(-5023,6284)"/>
	<use xlink:href="#prohod" width="105" height="105" transform="scale(-1,-1) translate(-5023,-6490)"/>
</g>
<g>
	<desc>Комната 208</desc>
	<path d="M4203,5590 V5777" class="contur-20" />
	<path d="M4203,5893 V6126 H4756 M4873,6126 H4910" class="contur-20" />
	<path d="M4723,5590 V6126" class="contur-20" />
	<path d="M4337,4753 L4205,4835 V5588 H5258 V5980" class="contur-24" />
	<use xlink:href="#prohod" width="120" height="120" transform="scale(-1,-1) translate(-4330,-5894)"/>
</g>
<g>
	<desc>Комната 246</desc>
	<use xlink:href="#prohod" width="122" height="122" transform="scale(-1,1) translate(-4755,5998) rotate(90)"/>
</g>
<g>
	<desc>Комната 267</desc>
	<use xlink:href="#prohod" width="95" height="95" transform="scale(-1,1) translate(-2463,5325) rotate(30)"/>
	<use xlink:href="#prohod" width="90" height="90" transform="scale(1,1) translate(2550,5482) rotate(150)"/>
</g>
<g>
	<desc>Комната 260</desc>
	<use xlink:href="#prohod" width="90" height="90" transform="scale(-1,-1) translate(-2653,-4877) rotate(60)"/>
	<use xlink:href="#prohod" width="90" height="90" transform="scale(1,-1) translate(2807,-4793) rotate(120)"/>
</g>
<g>
	<desc>Комната 271</desc>
	<path d="M5083,7195 H5255" class="contur-20" />
</g>
<g>
	<desc>Лестница ЛК-7 241</desc>
	<path d="M3670,6925 V6645 H4367 V7292" class="contur-30" />
	<path d="M3960,6898.5 H4203.5 V6808.5 H4036" class="border" />
	<path d="M3960,6905.5 H4210.5 V6801.5 H4036" class="border" />
	<path d="M3962.5,6905 V7048" class="border" />
	<path d="M3998.5,6905 V7048" class="border" />
	<path d="M4032.5,6905 V7048" class="border" />
	<path d="M4067.5,6905 V7048" class="border" />
	<path d="M4102.5,6905 V7048" class="border" />
	<path d="M4137.5,6905 V7048" class="border" />
	<path d="M4172.5,6905 V7048" class="border" />
	<path d="M4207.5,6905 V7048" class="border" />
	<path d="M4211,6804.5 H4355" class="border" />
	<path d="M4211,6839.5 H4355" class="border" />
	<path d="M4211,6874.5 H4355" class="border" />
	<path d="M4207,6910.5 H4355" class="border" />
	<path d="M4040.5,6655 V6802" class="border" />
	<path d="M4075.5,6655 V6802" class="border" />
	<path d="M4110.5,6655 V6802" class="border" />
	<path d="M4145.5,6655 V6802" class="border" />
	<path d="M4180.5,6655 V6802" class="border" />
	<path d="M4216.5,6655 V6805" class="border" />
	<path d="M3967,6658 L3997,6722 4010,6725 3991,6735 4005,6738 4036.5,6801.5" class="border" />
	<path d="M4000.5,6658 V6723 M4000.5,6730 V6737" class="border" />
	<path d="M3965,6975.5 H4280.5 V6730.5 H4012 M4026,6715 L4012,6730.5 4026,6745" class="border" />
	<circle cx="3965" cy="6975.5" r="10" class="border" />
</g>
<g>
	<desc>Лифт Л1</desc>
	<path d="M3670,7138 V7060 H4370" class="contur-30" />
	<path d="M3670,7255 V7290 H4382" class="contur-30" />
	<path d="M4020,7065 V7285" class="contur-30" />
	<path d="M4030,7072 L4355,7277" class="border" />
	<path d="M4030,7277 L4355,7074" class="border" />
	<use xlink:href="#lift"  x="3690" y="7070" width="320" height="320" class="lift-gray" />
</g>
<g>
	<desc>Лестница ЛК-6 242</desc>
	<path d="M4148,7530 H3670 V8050 H4367 V7530 H4323" class="contur-30" />
	<path d="M4170,7725 H3865 V7855 H4172 V7765" class="contur-24" />
	<rect x="3848.5" y="7708.5"  height="165"  width="340" class="border" />
	<rect x="3843.5" y="7703.5"  height="175"  width="350" class="border" />
	<path d="M3847.5,7540 V7703" class="border" />
	<path d="M3882.5,7540 V7703" class="border" />
	<path d="M3916.5,7540 V7703" class="border" />
	<path d="M3952.5,7540 V7703" class="border" />
	<path d="M3987.5,7540 V7703" class="border" />
	<path d="M4023.5,7540 V7703" class="border" />
	<path d="M4057.5,7540 V7703" class="border" />
	<path d="M3680,7703.5 H3843" class="border" />
	<path d="M3680,7733.5 H3843" class="border" />
	<path d="M3680,7769.5 H3843" class="border" />
	<path d="M3680,7803.5 H3843" class="border" />
	<path d="M3680,7833.5 H3843" class="border" />
	<path d="M3680,7873.5 H3843" class="border" />
	<path d="M3843.5,7877 V8040" class="border" />
	<path d="M3875.5,7948 V8040" class="border" />
	<path d="M3843.5,7877 L3876,7949 3890,7950 3870,7960 3884,7965 3918,8040" class="border" />
	<circle cx="4057" cy="7622.5" r="10" class="border" />
	<path d="M4057,7622.5 H3763.5 V7957.5 H3868 M3853,7940 L3868,7957.5 3853,7972" class="border" />
	<use xlink:href="#prohod" width="100" height="100" transform="scale(1,-1) translate(4323,-7642) rotate(90)"/>
	<use xlink:href="#prohod" width="80" height="80" transform="scale(-1,-1) translate(-4147,-7623) rotate(90)"/>
</g>
<g>
	<desc>Лестница ЛК-4 205</desc>
	<path d="M4873,8050 H6238" class="contur-30" />
	<path d="M5255,8050 V7490" class="contur-30" />
	<path d="M5255,7530 H5730" class="contur-30" />
	<path d="M5905,7530 H5955 V8050" class="contur-30" />
	<path d="M5497,7870.5 H5435.5 V7709.5 H5715.5 V7703.5 H5430.5 V7875.5 H5500" class="border" />
	<path d="M5433.5,7530 V7703" class="border" />
	<path d="M5468.5,7530 V7703" class="border" />
	<path d="M5504.5,7530 V7703" class="border" />
	<path d="M5538.5,7530 V7703" class="border" />
	<path d="M5574.5,7530 V7703" class="border" />
	<path d="M5609.5,7530 V7703" class="border" />
	<path d="M5644.5,7530 V7703" class="border" />
	<path d="M5679.5,7530 V7703" class="border" />
	<path d="M5714.5,7530 V7703" class="border" />
	<path d="M5267,7698.5 H5433" class="border" />
	<path d="M5267,7733.5 H5430" class="border" />
	<path d="M5267,7769.5 H5430" class="border" />
	<path d="M5267,7803.5 H5430" class="border" />
	<path d="M5267,7838.5 H5430" class="border" />
	<path d="M5267,7873.5 H5430" class="border" />
	<path d="M5425.5,7873 V8037" class="border" />
	<path d="M5460.5,7875 V8037" class="border" />
	<path d="M5495.5,7875 V8037" class="border" />
	<path d="M5530.5,7875 V8037" class="border" />
	<path d="M5495.5,7875 L5530,7947 5544,7952 5524,7960 5538,7964 5571,8038" class="border" />
	<path d="M5515.5,7875 L5548,7948 5562,7952 5542,7960 5555,7965 5590,8037" class="border" />
	<path d="M5709,7623.5 H5350.5 V7956.5 H5523 M5507,7941 L5523,7956.5 5507,7971" class="border" />
	<circle cx="5709.5" cy="7622.5" r="10" class="border" />
</g>
<g>
	<desc>Лифт Л3</desc>
	<path d="M5950,7810 H6027" class="contur-30" />
	<path d="M6148,7810 H6182 V8052" class="contur-30" />
</g>
<g>
	<desc>Лифт Л4</desc>
	<path d="M6254,8050 H6910" class="contur-30" />
	<path d="M6337,7810 H6310 V8052" class="contur-30" />
	<path d="M6460,7810 H6540 V8052" class="contur-30" />
	<path d="M6215,7995 V8050" class="contur-46" />
	<path d="M6277,7995 V8050" class="contur-46" />
</g>
<g>
	<desc>Лифт Л5</desc>
	<path d="M10080,7530 H10002 V7770 H10525 V7495" class="contur-30" />
	<use xlink:href="#lift2" width="320" height="320" transform="scale(-1,1) translate(-10010,7558) rotate(90)" class="lift-green" />
</g>
<g>
	<desc>Комната 230</desc>
	<path d="M10195,7530 H10310" class="contur-30" />
	<path d="M10434,7530 H10522" class="contur-30" />
	<path d="M10230,7530 V7765" class="contur-30" />
	<use xlink:href="#prohod" width="127" height="127" transform="scale(-1,1) translate(-10310,7392) rotate(90)"/>
	<use xlink:href="#sink"  width="60" height="60" transform="scale(1,1) translate(10258,7700)" />
	<use xlink:href="#bath"  width="110" height="110" transform="scale(1,1) translate(10400,7645)" />
</g>
<g>
	<desc>Комната 274</desc>
	<path d="M5950,7525 H6057" class="contur-20" />
	<path d="M6173,7525 H6230" class="contur-20" />
	<path d="M6230,7430 V7805 H6180" class="contur-20" />
	<use xlink:href="#lift2"  width="300" height="300" transform="scale(-1,1) translate(-5970,7836) rotate(90)"  class="lift-green" />
	<use xlink:href="#prohod" width="120" height="120" transform="scale(1,-1) translate(6174,-7652) rotate(90)"/>
</g>
<g>
	<desc>Комната 232</desc>
	<path d="M6265,7430 V7805 H6307" class="contur-20" />
	<path d="M6545,7525 V7807" class="contur-20" />
	<path d="M6266,7525 H6370" class="contur-20" />
	<path d="M6490,7525 H6640" class="contur-20" />
	<use xlink:href="#lift2"  width="300" height="300" transform="scale(1,1) translate(6528,7836) rotate(90)"  class="lift-green" />
	<use xlink:href="#prohod" width="123" height="123" transform="scale(1,-1) translate(6490,-7655) rotate(90)"/>
</g>
<g>
	<desc>Комната 261</desc>
	<path d="M6757,7525 H6870" class="contur-20" />
	<path d="M6850,7525 V8050" class="contur-20" />
	<use xlink:href="#prohod" width="122" height="122" transform="scale(-1,-1) translate(-6639,-7654) rotate(90)"/>
</g>
<g>
	<desc>Комната 210</desc>
	<path d="M6985,7525 H7536" class="contur-20" />
	<path d="M7318,7525 V8065" class="contur-20" />
	<use xlink:href="#prohod" width="120" height="120" transform="scale(-1,-1) translate(-6869,-7652) rotate(90)"/>
</g>
<g>
	<desc>Комната 211</desc>
	<path d="M7652,7525 H7817" class="contur-20" />
	<path d="M7735,7525 V8065" class="contur-20" />
	<use xlink:href="#prohod" width="120" height="120" transform="scale(1,-1) translate(7653,-7652) rotate(90)"/>
</g>
<g>
	<desc>Комната 212</desc>
	<path d="M7933,7525 H8706" class="contur-20" />
	<path d="M8423,7525 V8055 H10625" class="contur-20" />
	<use xlink:href="#prohod" width="120" height="120" transform="scale(-1,-1) translate(-7816,-7652) rotate(90)"/>
</g>
<g>
	<desc>Комната 213</desc>
	<path d="M8824,7525 H9210" class="contur-20" />
	<path d="M8990,7525 V8062" class="contur-20" />
	<use xlink:href="#prohod" width="120" height="120" transform="scale(-1,-1) translate(-8706,-7652) rotate(90)"/>
</g>
<g>
	<desc>Комната 214</desc>
	<path d="M9325,7525 H9572" class="contur-20" />
	<path d="M9476,7495 V8062" class="contur-20" />
	<use xlink:href="#prohod" width="120" height="120" transform="scale(1,-1) translate(9326,-7652) rotate(90)"/>
</g>
<g>
	<desc>Комната 217</desc>
	<path d="M9690,7525 H9990" class="contur-20" />
	<path d="M10185,7775 V8055" class="contur-20" />
	<use xlink:href="#prohod" width="122" height="122" transform="scale(-1,-1) translate(-9571,-7653) rotate(90)"/>
</g>
<g>
	<desc>Комната 216</desc>
	<path d="M5273,6496 V6590" class="contur-8" />
	<path d="M5260,6585 H5330" class="contur-30" />
	<path d="M5515,6585 H5635" class="contur-30" />
	<path d="M5265,7200 H5353" class="contur-12" />
	<path d="M5470,7200 H5570 V6915 M5570,6727 V6595" class="contur-12" />
	<use xlink:href="#prohod" width="120" height="120" transform="scale(1,-1) translate(5470,-7323) rotate(90)"/>
	<use xlink:href="#window"  width="100" height="100"  transform="translate(5330,6570)"/>
	<use xlink:href="#window"  width="100" height="100"  transform="translate(5415,6570)"/>
	<use xlink:href="#window"  width="110" height="110"  transform="translate(5577,6727) rotate(90)"/>
	<use xlink:href="#window"  width="110" height="110"  transform="translate(5577,6805) rotate(90)"/>
	<use xlink:href="#prohod" width="118" height="118" transform="scale(1,-1) translate(5750,-6715) rotate(90)"/>
</g>
<g>
	<desc>Комната 266</desc>
	<path d="M10530,7780 V7810" class="contur-20" />
	<path d="M10530,7924 V8055" class="contur-20" />
	<use xlink:href="#prohod" width="118" height="118" transform="scale(-1,1) translate(-10655,7810)"/>
</g>
<g>
	<desc>Комната 234</desc>
	<use xlink:href="#prohod" width="125" height="125" transform="scale(1,-1) translate(10411,-8356)"/>
</g>
<g>
	<desc>Комната 237</desc>
	<use xlink:href="#prohod" width="108" height="108" transform="scale(-1,-1) translate(-10625,-8175) rotate(90)"/>
	<use xlink:href="#prohod" width="109" height="109" transform="scale(1,-1) translate(10837,-8176) rotate(90)"/>
	<use xlink:href="#prohod" width="120" height="120" transform="scale(1,-1) translate(10865,-8017)"/>
	<use xlink:href="#prohod" width="70" height="70" transform="scale(-1,1) translate(-10608,7322)"/>
	<use xlink:href="#prohod" width="108" height="108" transform="scale(-1,-1) translate(-10645,-7496)"/>
	<use xlink:href="#prohod" width="70" height="70" transform="scale(-1,1) translate(-10608,7100)"/>
	<use xlink:href="#prohod" width="107" height="107" transform="scale(-1,-1) translate(-10645,-7272)"/>
	<use xlink:href="#prohod" width="120" height="120" transform="scale(1,-1) translate(10865,-7050)"/>
	<use xlink:href="#prohod" width="120" height="120" transform="scale(1,1) translate(10865,6815)"/>
	<use xlink:href="#prohod" width="124" height="124" transform="scale(-1,-1) translate(-10707,-6190) rotate(90)"/>
</g>
<g>
	<desc>Комната 269</desc>
	<path d="M5750,6585 H5785" class="contur-30" />
	<path d="M5903,6585 H10540" class="contur-30" />
	<path d="M5770,6590 V7150 H5795" class="contur-20" />
	<path d="M5912,7150 H5980" class="contur-20" />
	<use xlink:href="#prohod" width="120" height="120" transform="scale(-1,-1) translate(-5786,-6716) rotate(90)"/>
	<use xlink:href="#prohod" width="120" height="120" transform="scale(-1,1) translate(-5795,7025) rotate(90)"/>
</g>
<g>
	<desc>Комната 270</desc>
	<path d="M5986,6590 V6672" class="contur-24" />
	<path d="M5986,6788 V7148 H6230" class="contur-24" />
	<path d="M6230,6590 V7262" class="contur-20" />
	<path d="M6265,6590 V7262" class="contur-20" />
	<use xlink:href="#prohod" width="120" height="120" transform="scale(-1,1) translate(-6115,6672)"/>
</g>
<g>
	<desc>Комната 235</desc>
	<use xlink:href="#prohod" width="87" height="87" transform="scale(-1,1) translate(-6360,7262)"/>
	<use xlink:href="#prohod" width="87" height="87" transform="scale(-1,-1) translate(-6360,-7431)"/>
</g>
<g>
	<desc>Комната 263</desc>
	<path d="M6270,6590 V7190 H6852" class="contur-30" />
	<path d="M6840,7195 H6875" class="contur-20" />
	<path d="M6992,7195 H7063" class="contur-20" />
	<use xlink:href="#prohod" width="120" height="120" transform="scale(1,-1) translate(6993,-7323) rotate(90)"/>
</g>
<g>
	<desc>Комната 264</desc>
	<path d="M6825,6595 V7000 H7180" class="contur-20" />
	<path d="M7035,7000 V7195" class="contur-20" />
	<path d="M7180,7195 H7988" class="contur-20" />
	<use xlink:href="#prohod" width="120" height="120" transform="scale(-1,-1) translate(-7063,-7323) rotate(90)"/>
</g>
<g>
	<desc>Комната 229</desc>
	<path d="M7363,6590 V7195" class="contur-30" />
	<path d="M8105,7195 H8697" class="contur-20" />
	<path d="M8397,6590 V7195" class="contur-30" />
	<path d="M7620,6590 V6855 H7640" class="contur-12" />
	<path d="M7755,6855 H7970" class="contur-12" />
	<path d="M7975,6590 V7052 M7975,7170 V7190" class="contur-12" />
	<path d="M7808,6726 H7970" class="contur-12" />
	<path d="M7765,7036 H8125 V7050" class="contur-12" />
	<path d="M8125,7170 V7190" class="contur-12" />
	<path d="M8367,6588 V7190" class="contur-12" />
	<path d="M8198,6855 H8365" class="contur-12" />
	<path d="M8194,6590 V6614" class="contur-12" />
	<path d="M8194,6725 V6736 H8367" class="contur-12" />
	<use xlink:href="#prohod" width="120" height="120" transform="scale(-1,-1) translate(-7639,-6967) rotate(90)"/>
	<use xlink:href="#prohod" width="120" height="120" transform="scale(-1,-1) translate(-7987,-7324) rotate(90)"/>
	<use xlink:href="#prohod" width="120" height="120" transform="scale(1,-1) translate(7852,-7170)"/>
	<use xlink:href="#prohod" width="120" height="120" transform="scale(-1,1) translate(-8248,7052)"/>
	<use xlink:href="#prohod" width="80" height="80" transform="scale(1,1) translate(8122,6615)"/>
	<use xlink:href="#prohod" width="80" height="80" transform="scale(1,1) translate(8122,6753)"/>
	<use xlink:href="#sink"  width="60" height="60" transform="scale(1,1) translate(8035,6638) rotate(90)" />
	<use xlink:href="#sink"  width="60" height="60" transform="scale(1,1) translate(8035,6719) rotate(90)" />
	<use xlink:href="#sink"  width="60" height="60" transform="scale(1,1) translate(8035,6795) rotate(90)" />
	<use xlink:href="#shower"  width="110" height="110" x="7850" y="6738" />
	<use xlink:href="#shower"  width="110" height="110" transform="scale(1,-1) translate(7850,-6712)" />
	<path d="M7830.5,6855 V6800 L7842,6795 7830,6786 7842,6777 7830,6767 7842,6757 7830,6749 7833,6745" class="border" />
	<path d="M7830.5,6598 V6660 L7842,6668 7830,6678 7842,6686 7830,6696 7842,6704 7830,6712 7833,6715" class="border" />
	<use xlink:href="#tualet2"  width="80" height="80" transform="scale(-1,-1) translate(-8281,-6703) rotate(90)" />
	<use xlink:href="#tualet2"  width="80" height="80" transform="scale(-1,-1) translate(-8281,-6832) rotate(90)" />
</g>
<g>
	<desc>Комната 228</desc>
	<path d="M8426,6588 V7190" class="contur-12" />
	<path d="M8425,6855 H8595" class="contur-12" />
	<path d="M8590,6590 V6614" class="contur-12" />
	<path d="M8590,6725 V6736 H8427" class="contur-12" />
	<path d="M8814,7195 H9485" class="contur-20" />
	<path d="M8820,6590 V7052 M8820,7170 V7190" class="contur-12" />
	<path d="M9028,7036 H8668 V7052" class="contur-12" />
	<path d="M8668,7170 V7190" class="contur-12" />
	<path d="M8820,6855 H9038" class="contur-12" />
	<path d="M9154,6855 H9172 V6590" class="contur-12" />
	<path d="M8820,6725 H8985" class="contur-12" />
	<path d="M9470,6590 V7205" class="contur-30" />
	<use xlink:href="#prohod" width="120" height="120" transform="scale(1,-1) translate(9155,-6979) rotate(90)"/>
	<use xlink:href="#prohod" width="120" height="120" transform="scale(1,-1) translate(8815,-7322) rotate(90)"/>
	<use xlink:href="#prohod" width="120" height="120" transform="scale(-1,1) translate(-8943,7052)"/>
	<use xlink:href="#prohod" width="120" height="120" transform="scale(1,-1) translate(8545,-7169)"/>
	<use xlink:href="#prohod" width="113" height="113" transform="scale(-1,1) translate(-8706,6613)"/>
	<use xlink:href="#prohod" width="110" height="110" transform="scale(-1,1) translate(-8704,6742)"/>
	<use xlink:href="#sink"  width="60" height="60" transform="scale(-1,1) translate(-8757,6638) rotate(90)" />
	<use xlink:href="#sink"  width="60" height="60" transform="scale(-1,1) translate(-8757,6719) rotate(90)" />
	<use xlink:href="#sink"  width="60" height="60" transform="scale(-1,1) translate(-8757,6795) rotate(90)" />
	<use xlink:href="#shower"  width="110" height="110" transform="scale(-1,1) translate(-8940,6738)" />
	<use xlink:href="#shower"  width="110" height="110" transform="scale(-1,-1) translate(-8940,-6712)" />
	<path d="M8956.5,6598 V6660 L8945,6668 8955,6677 8945,6686 8955,6695 8945,6704 8955,6712 8954,6715" class="border" />
	<path d="M8956.5,6852 V6794 L8945,6786 8955,6777 8945,6769 8955,6760 8945,6752 8955,6743 8954,6739" class="border" />
	<use xlink:href="#tualet2"  width="80" height="80" transform="scale(1,-1) translate(8512,-6703) rotate(90)" />
	<use xlink:href="#tualet2"  width="80" height="80" transform="scale(1,-1) translate(8512,-6832) rotate(90)" />
</g>
<g>
	<desc>Комната 233</desc>
	<path d="M9475,7190 V7322" class="contur-20" />
	<path d="M9475,7290 H9575" class="contur-20" />
	<path d="M9693,7290 H10000" class="contur-20" />
	<use xlink:href="#prohod" width="120" height="120" transform="scale(-1,1) translate(-9575,7165) rotate(90)"/>
</g>
<g>
	<desc>Комната 233</desc>
	<use xlink:href="#prohod" width="106" height="106" transform="scale(-1,-1) translate(-9590,-7497)"/>
	<use xlink:href="#prohod" width="75" height="75" transform="scale(-1,1) translate(-9559,7321)"/>
</g>
<g>
	<desc>Лестница ЛК-3 215</desc>
	<path d="M10003,6590 V7285 H10525 V7323" class="contur-30" />
	<path d="M10000,6595 H10525 V7100" class="contur-30" />
	<path d="M10525,6595 V6051" class="contur-30" />
	<path d="M10175.5,6866 V6765.5 H10350.5 V6985.5 H10343.5 V6772.5 H10182.5 V6866" class="border" />
	<path d="M10350,6980.5 H10510" class="border" />
	<path d="M10350,6945.5 H10510" class="border" />
	<path d="M10350,6910.5 H10510" class="border" />
	<path d="M10350,6875.5 H10510" class="border" />
	<path d="M10350,6840.5 H10510" class="border" />
	<path d="M10350,6805.5 H10510" class="border" />
	<path d="M10350,6770.5 H10510" class="border" />
	<path d="M10180.5,6605 V6766" class="border" />
	<path d="M10215.5,6605 V6766" class="border" />
	<path d="M10250.5,6605 V6766" class="border" />
	<path d="M10285.5,6605 V6766" class="border" />
	<path d="M10320.5,6605 V6766" class="border" />
	<path d="M10355.5,6605 V6770" class="border" />
	<path d="M10015,6943 L10088,6910 10092,6896 10101,6915 10104,6901 10175,6865" class="border" />
	<path d="M10015,6761.5 H10180" class="border" />
	<path d="M10015,6796.5 H10175" class="border" />
	<path d="M10015,6831.5 H10175" class="border" />
	<path d="M10015,6865.5 H10175" class="border" />
	<path d="M10015,6900.5 H10090 M10094,6900.5 H10104" class="border" />
	<path d="M10430.5,6975 V6685.5 H10097.5 V6895 M10082.5,6880 L10097.5,6895 10112.5,6880" class="border" />
	<circle cx="10430.5" cy="6975" r="10" class="border"  />
</g>
<g>
	<desc>Лестница ЛК-2 220</desc>
	<path d="M11010,5485 V6020 H11705 V5497" class="contur-30" />
	<path d="M11200,5500 H12165 V5827 H12067" class="contur-30" />
	<path d="M11700,5827 H11800" class="contur-30" />
	<use xlink:href="#prohod" width="72" height="72" transform="scale(1,1) translate(11201,5415) rotate(90)"/>
	<use xlink:href="#prohod" width="108" height="108" transform="scale(-1,1) translate(-11025,5380) rotate(90)"/>
	<path d="M11525.5,5775 V5680.5 H11208.5 V5673.5 H11532.5 V5777.5" class="border" />
	<path d="M11532.5,5777.5 L11604,5745 11607,5731 11617,5752 11620,5738 11693,5704" class="border" />
	<path d="M11532.5,5797.5 L11604,5765 11607,5750 11617,5770 11620,5755 11693,5722" class="border" />
	<path d="M11215.5,5510 V5673" class="border" />
	<path d="M11250.5,5510 V5673" class="border" />
	<path d="M11285.5,5510 V5673" class="border" />
	<path d="M11320.5,5510 V5673" class="border" />
	<path d="M11355.5,5510 V5673" class="border" />
	<path d="M11390.5,5510 V5673" class="border" />
	<path d="M11425.5,5510 V5673" class="border" />
	<path d="M11460.5,5510 V5673" class="border" />
	<path d="M11495.5,5510 V5673" class="border" />
	<path d="M11530.5,5510 V5673" class="border" />
	<path d="M11530,5670.5 H11693" class="border" />
	<path d="M11533,5703.5 H11693" class="border" />
	<path d="M11533,5738.5 H11605 M11611,5738.5 H11620" class="border" />
	<path d="M11217,5592.5 H11612.5 V5730 M11597.5,5715 L11612.5,5730 11627.5,5715" class="border" />
	<circle cx="11217" cy="5592.5" r="10" class="border"  />
</g>
<g>
	<desc>Лестница ЛК-1 244</desc>
	<path d="M9430,1580 V2128 H11054" class="contur-30" />
	<path d="M9685,1930.5 H9625.5 V1805.5 H9910.5 V1796.5 H9618.5 V1937.5 H9685" class="border" />
	<path d="M9625.5,1618 V1796" class="border" />
	<path d="M9660.5,1618 V1796" class="border" />
	<path d="M9695.5,1618 V1796" class="border" />
	<path d="M9730.5,1618 V1796" class="border" />
	<path d="M9765.5,1618 V1796" class="border" />
	<path d="M9800.5,1618 V1796" class="border" />
	<path d="M9835.5,1618 V1796" class="border" />
	<path d="M9870.5,1618 V1796" class="border" />
	<path d="M9905.5,1618 V1796" class="border" />
	<path d="M9618.5,1937 V2115" class="border" />
	<path d="M9650.5,1937 V2115" class="border" />
	<path d="M9685.5,1937 V2115" class="border" />
	<path d="M9722.5,2016 V2115" class="border" />
	<path d="M9760.5,2100 V2115" class="border" />
	<path d="M9685.5,1937 L9721,2017 9735,2020 9715,2027 9730,2032 9767,2115" class="border" />
	<path d="M9900,1708.5 H9530 V2025.5 H9712 M9697,2010.5 L9712,2025.5 9697,2040.5" class="border" />
	<circle cx="9900" cy="1708.5" r="10" class="border"  />
</g>
<g>
	<desc>Лестница ЛК-5 259</desc>
	<path d="M4796,2601 L4890,2765" class="border" />
	<path d="M4826,2585 L4920,2748" class="border" />
	<path d="M4854,2563 L4952,2734" class="border" />
	<path d="M4886,2550 L4983,2716" class="border" />
	<path d="M4917,2530 L5014,2700" class="border" />
	<path d="M4948,2513 L5043,2680" class="border" />
	<path d="M4978,2498 L5073,2663" class="border" />
	<path d="M5008,2480 L5103,2645" class="border" />
	<path d="M5038,2462 L5133,2625" class="border" />
	<path d="M5070,2444 L5164,2610" class="border" />
	<path d="M4847,2685 L5298,2424 M5277,2419 L5298,2424 5292,2444" class="border" />
	<path d="M5222,2358 L5315,2519" class="border" />
	<path d="M5223,2359 L5300,2413 5314,2409 5302,2427 5315,2423 5392,2476" class="border" />
	<path d="M5290,2406 L5346,2503" class="border" />
	<path d="M5365,2458 L5380,2483" class="border" />
	<circle cx="4847" cy="2685" r="10" class="border"  />
	<use xlink:href="#prohod" width="85" height="85" transform="scale(-1,1) translate(-4730,2643) rotate(30)"/>
	<use xlink:href="#prohod" width="104" height="104" transform="scale(1,1) translate(4835,2795) rotate(150)"/>
</g>
<g>
	<desc>Лифт Л8</desc>
	<path d="M10090,1610 V1835 H10420 V1800" class="contur-30" />
	<path d="M10420,1685 V1605" class="contur-30" />
	<path d="M10085,1840 V1882" class="contur-20" />
	<path d="M10085,2055 V2120" class="contur-20" />
	<use xlink:href="#lift" width="320" height="320" transform="scale(-1,1) translate(-10410,1620)" class="lift-green"  />
</g>
<g>
	<desc>Комната 265</desc>
	<path d="M9435,1606 V855 H8280" class="contur-40" />
	<path d="M8005,855 V1352 H8130" class="contur-24" />
	<path d="M8240,1352 H8467" class="contur-24" />
	<path d="M8653,1352 H8805" class="contur-24" />
	<path d="M8993,1352 H9112 V1373" class="contur-24" />
	<path d="M9112,1482 V1613 H9426" class="contur-24" />
	<path d="M8378,860 V1350" class="contur-24" />
	<path d="M8717,860 V1350" class="contur-24" />
	<use xlink:href="#prohod" width="120" height="120" transform="scale(1,-1) translate(8983,-1483)"/>
	<use xlink:href="#prohod" width="116" height="116" transform="scale(-1,-1) translate(-8129,-1479) rotate(90)"/>
	<use xlink:href="#prohod" width="95" height="95" transform="scale(-1,-1) translate(-8468,-1457) rotate(90)"/>
	<use xlink:href="#prohod" width="95" height="95" transform="scale(1,-1) translate(8652,-1457) rotate(90)"/>
	
	<use xlink:href="#prohod" width="96" height="96" transform="scale(-1,-1) translate(-8805,-1457) rotate(90)"/>
	<use xlink:href="#prohod" width="96" height="96" transform="scale(1,-1) translate(8992,-1457) rotate(90)"/>
</g>
<g>
	<desc>Комната 248</desc>
	<path d="M10477,5940 V5966" class="contur-30" />
	<path d="M10477,5700 V5820" class="contur-30" />
	<path d="M10477,5790 H10625" class="contur-20" />
	<path d="M10765,5790 H11005" class="contur-20" />
	<path d="M10515,6124 H10465 V6044 H10384 V5968 H10470" class="contur-8" />
	<rect x="10387" y="5970" width="70" height="70" class="border-full"/>
	<rect x="10468" y="5965" width="70" height="70" class="border-full"/>
	<rect x="10468" y="6050.5" width="70" height="70" class="border-full"/>
	<use xlink:href="#prohod" width="125" height="125" transform="scale(-1,1) translate(-10614,5819)"/>
</g>
<g>
	<desc>Комната 247</desc>
	<path d="M10477,5580 V5370" class="contur-30" />
	<path d="M10475,5495 H10627" class="contur-20" />
	<path d="M10765,5495 H11000" class="contur-20" />
	<use xlink:href="#prohod" width="125" height="125" transform="scale(-1,1) translate(-10615,5580)"/>
	<use xlink:href="#window"  width="80" height="80"  transform="translate(10627,5485)"/>
	<use xlink:href="#window"  width="80" height="80"  transform="translate(10685,5485)"/>
	<use xlink:href="#window"  width="80" height="80"  transform="translate(10625,5792)"/>
	<use xlink:href="#window"  width="80" height="80"  transform="translate(10685,5792)"/>
</g>
<g>
	<desc>Комната 202</desc>
	<path d="M10477,5067 V5185" class="contur-30" />
	<path d="M10830,5060 V5182" class="contur-20" />
	<path d="M10830,5370 V5495" class="contur-20" />
	<path d="M10538,5053 H11586" class="contur-30" />
	<path d="M10475,5071 H10384 V4996 H10542 V5053" class="contur-8" />
	<rect x="10387" y="4998" width="70" height="70" class="border-full"/>
	<rect x="10468" y="4997.5" width="70" height="70" class="border-full"/>
	<use xlink:href="#prohod" width="96" height="96" transform="scale(-1,1) translate(-10587,5185)"/>
	<use xlink:href="#prohod" width="96" height="96" transform="scale(-1,-1) translate(-10587,-5372)"/>
	<use xlink:href="#prohod" width="96" height="96" transform="scale(-1,1) translate(-10935,5183)"/>
	<use xlink:href="#prohod" width="96" height="96" transform="scale(-1,-1) translate(-10935,-5371)"/>
</g>
<g>
	<desc>Комната 225</desc>
	<path d="M11055,2190 V1967" class="contur-46" />
	<path d="M11055,1763 V1603 H10892" class="contur-46" />
	<path d="M10687,1603 H9415" class="contur-46" />
	<use xlink:href="#prohod" width="106" height="106" transform="scale(-1,1) translate(-12595,3504)"/>
	<use xlink:href="#prohod" width="106" height="106" transform="scale(-1,-1) translate(-12595,-3712)"/>
</g>
<g>
	<desc>Комната 226</desc>
	<path d="M11625,2900 V3980" class="contur-30" />
	<path d="M11610,3430 H12470" class="contur-20" />
	<use xlink:href="#prohod" width="106" height="106" transform="scale(-1,1) translate(-12595,3068)"/>
	<use xlink:href="#prohod" width="106" height="106" transform="scale(-1,-1) translate(-12595,-3275)"/>
</g>
<g>
	<desc>Комната 226</desc>
	<use xlink:href="#prohod" width="128" height="128" transform="scale(1,1) translate(12829,3239) rotate(90)"/>
</g>
<g>
	<desc>Комната 245</desc>
	<use xlink:href="#prohod" width="105" height="105" transform="scale(-1,-1) translate(-10687,-1729) rotate(90)"/>
	<use xlink:href="#prohod" width="105" height="105" transform="scale(1,-1) translate(10893,-1729) rotate(90)"/>
	<use xlink:href="#prohod" width="104" height="104" transform="scale(-1,1) translate(-11180,1764)"/>
	<use xlink:href="#prohod" width="104" height="104" transform="scale(-1,-1) translate(-11180,-1966)"/>
	
	<use xlink:href="#prohod" width="90" height="90" transform="scale(-1,1) translate(-10183,1881)"/>
	<use xlink:href="#prohod" width="90" height="90" transform="scale(-1,-1) translate(-10183,-2057)"/>
</g>
<g>
	<desc>Комната 223</desc>
	<path d="M11545,5058 H12470" class="contur-20" />
	<path d="M11622,3967 V5060" class="contur-24" />
	<path d="M11622,4528 H12470" class="contur-20" />
	<rect x="11540" y="4987" width="70" height="70" class="border-full"/>
	<use xlink:href="#prohod" width="127" height="127" transform="scale(-1,1) translate(-12615,4673)"/>
	<use xlink:href="#prohod" width="127" height="127" transform="scale(-1,-1) translate(-12615,-4921)"/>
</g>
<g>
	<desc>Комната 221</desc>
	<path d="M11622,3977 H12470" class="contur-20" />
	<use xlink:href="#prohod" width="106" height="106" transform="scale(-1,1) translate(-12595,4290)"/>
	<use xlink:href="#prohod" width="106" height="106" transform="scale(-1,-1) translate(-12595,-4497)"/>
</g>
<g>
	<desc>Комната 224</desc>
	<use xlink:href="#prohod" width="127" height="127" transform="scale(-1,1) translate(-12615,5077)"/>
	<use xlink:href="#prohod" width="127" height="127" transform="scale(-1,-1) translate(-12615,-5325)"/>
	<use xlink:href="#window"  width="105" height="105"  transform="translate(12492,5580) rotate(90)"/>
	<use xlink:href="#window"  width="105" height="105"  transform="translate(12492,5663) rotate(90)"/>
</g>
<g>
	<desc>Лифт Л6</desc>
	<path d="M11935,5500 V5845" class="contur-30" />
	<use xlink:href="#lift" width="320" height="320" transform="scale(-1,-1) translate(-11715,-5817) rotate(90)" class="lift-green"  />
</g>
<g>
	<desc>Лифт Л7</desc>
	<use xlink:href="#lift" width="320" height="320" transform="scale(1,-1) translate(12155,-5817) rotate(90)" class="lift-green"  />
</g>
<g>
	<desc>Комната 262</desc>
	<path d="M10994,8017 V8050" class="contur-24" />
	<path d="M10994,7050 V7900" class="contur-24" />
	<path d="M10990,7498 H11042" class="contur-20" />
	<path d="M11206,7498 H11290" class="contur-20" />
	<path d="M11406,7498 H11570" class="contur-20" />
	<use xlink:href="#prohod" width="120" height="120" transform="scale(1,1) translate(11407,7370) rotate(90)"/>
	<use xlink:href="#window"  width="90" height="90"  transform="translate(11041,7487)"/>
	<use xlink:href="#window"  width="90" height="90"  transform="translate(11117,7487)"/>
</g>
<g>
	<desc>Комната 219</desc>
	<path d="M10994,6815 V6060" class="contur-24" />
	<path d="M10530,6060 H10707" class="contur-20" />
	<path d="M10828,6060 H11707" class="contur-20" />
	<path d="M11200,6065 H11720" class="contur-30" />
	<path d="M11235,6055 V6122" class="contur-70" />
	<path d="M11585,6055 V6122" class="contur-70" />
	<path d="M11269,6121 L11423,6136" class="border" />
	<path d="M11552,6121 L11422,6154" class="border" />
	<path d="M11322,6090 H11383" class="contur-20" />
	<path d="M11440,6090 H11500" class="contur-20" />
	<path d="M11705,6068 H12470" class="contur-24" />
	<use xlink:href="#prohod" width="108" height="108" transform="scale(-1,1) translate(-12596,6310)"/>
	<use xlink:href="#prohod" width="108" height="108" transform="scale(-1,-1) translate(-12596,-6521)"/>
</g>
<g>
	<desc>Парковка</desc>
	<path d="M6372.5,2130.5 V960.5 H7286.5 V2130.5 z" class="border" />
	<path d="M6373,1545.5 H7286" class="border" />
	<path d="M6660.5,960 V2130" class="border" />
	<path d="M6973.5,960 V2130" class="border" />
	<path d="M7400.5,2130.5 V960.5 H7970.5 V2130.5 z" class="border" />
	<path d="M7686.5,960 V2130" class="border" />
	<path d="M7400,1545.5 H7970" class="border" />
	<use xlink:href="#auto"  width="600" height="600" transform="scale(1,1) translate(6610,970) rotate(90)" />
	<use xlink:href="#auto"  width="600" height="600" transform="scale(1,1) translate(6930,970) rotate(90)" />
	<use xlink:href="#auto"  width="600" height="600" transform="scale(1,1) translate(7240,970) rotate(90)" />
	<use xlink:href="#auto"  width="600" height="600" transform="scale(1,1) translate(7640,970) rotate(90)" />
	<use xlink:href="#auto"  width="600" height="600" transform="scale(1,1) translate(7950,970) rotate(90)" />
	<use xlink:href="#auto"  width="600" height="600" transform="scale(1,1) translate(6610,1555) rotate(90)" />
	<use xlink:href="#auto"  width="600" height="600" transform="scale(1,1) translate(6930,1555) rotate(90)" />
	<use xlink:href="#auto"  width="600" height="600" transform="scale(1,1) translate(7240,1555) rotate(90)" />
	<use xlink:href="#auto"  width="600" height="600" transform="scale(1,1) translate(7640,1555) rotate(90)" />
	<use xlink:href="#auto"  width="600" height="600" transform="scale(1,1) translate(7950,1555) rotate(90)" />
	<path d="M10264.5,2980.5 H11490.5 V4955.5 H10264.5 z" class="border" />
	<path d="M10880.5,2980 V4955" class="border" />
	<path d="M10264.5,3295.5 H11490" class="border" />
	<path d="M10264.5,3610.5 H11490" class="border" />
	<path d="M10264.5,4035.5 H11490" class="border" />
	<path d="M10264.5,4350.5 H11490" class="border" />
	<path d="M10264.5,4663.5 H11490" class="border" />
	<use xlink:href="#auto"  width="600" height="600" transform="scale(-1,1) translate(-10840,3020)" />
	<use xlink:href="#auto"  width="600" height="600" transform="scale(-1,1) translate(-10840,3340)" />
	<use xlink:href="#auto"  width="600" height="600" transform="scale(-1,1) translate(-10840,3640)" />
	<use xlink:href="#auto"  width="600" height="600" transform="scale(-1,1) translate(-10840,4080)" />
	<use xlink:href="#auto"  width="600" height="600" transform="scale(-1,1) translate(-10840,4380)" />
	<use xlink:href="#auto"  width="600" height="600" transform="scale(-1,1) translate(-10840,4700)" />
	<use xlink:href="#auto"  width="600" height="600" transform="scale(-1,1) translate(-11460,3020)" />
	<use xlink:href="#auto"  width="600" height="600" transform="scale(-1,1) translate(-11460,3340)" />
	<use xlink:href="#auto"  width="600" height="600" transform="scale(-1,1) translate(-11460,3640)" />
	<use xlink:href="#auto"  width="600" height="600" transform="scale(-1,1) translate(-11460,4080)" />
	<use xlink:href="#auto"  width="600" height="600" transform="scale(-1,1) translate(-11460,4380)" />
	<use xlink:href="#auto"  width="600" height="600" transform="scale(-1,1) translate(-11460,4700)" />
	<path d="M8302.5,2980.5 H9532.5 V4975.5 H8302.5 z" class="border" />
	<path d="M8918.5,2980 V4975" class="border" />
	<path d="M8302,3454.5 H9532" class="border" />
	<path d="M8302,3924.5 H9532" class="border" />
	<path d="M8302,4505.5 H9532" class="border" />
	<use xlink:href="#auto"  width="600" height="600" transform="scale(-1,1) translate(-9513,3020)" />
	<use xlink:href="#auto"  width="600" height="600" transform="scale(-1,1) translate(-9513,3490)" />
	<use xlink:href="#auto"  width="600" height="600" transform="scale(-1,1) translate(-9513,4070)" />
	<use xlink:href="#auto"  width="600" height="600" transform="scale(-1,1) translate(-9513,4550)" />
	<use xlink:href="#auto"  width="600" height="600" transform="scale(1,1) translate(8320,3020)" />
	<use xlink:href="#auto"  width="600" height="600" transform="scale(1,1) translate(8320,3490)" />
	<use xlink:href="#auto"  width="600" height="600" transform="scale(1,1) translate(8320,4070)" />
	<use xlink:href="#auto"  width="600" height="600" transform="scale(1,1) translate(8320,4550)" />
	<use xlink:href="#auto_icon"  x="8500" y="3277" width="100" height="100" />
	<use xlink:href="#auto_icon"  x="8500" y="3747" width="100" height="100" />
	<use xlink:href="#auto_icon"  x="8500" y="4330" width="100" height="100" />
	<use xlink:href="#auto_icon"  x="8500" y="4810" width="100" height="100" />
	<use xlink:href="#auto_icon"  x="9115" y="3277" width="100" height="100" />
	<use xlink:href="#auto_icon"  x="9115" y="3747" width="100" height="100" />
	<use xlink:href="#auto_icon"  x="9115" y="4330" width="100" height="100" />
	<use xlink:href="#auto_icon"  x="9115" y="4810" width="100" height="100" />
	<path d="M8360,5010 H9485" class="contur-30" />
	<rect x="8360" y="4995" width="70" height="70" class="border-full"/>
	<rect x="9415" y="4995" width="70" height="70" class="border-full"/>
	<path d="M6345.5,5870.5 H7287.5 V6487.5 H6345.5 z" class="border" />
	<path d="M6660.5,5870 V6487" class="border" />
	<path d="M6973.5,5870 V6487" class="border" />
	<path d="M7400.5,5870.5 H8340.5 V6487.5 H7400.5 z" class="border" />
	<path d="M7713.5,5870 V6487" class="border" />
	<path d="M8025.5,5870 V6487" class="border" />
	<path d="M8453.5,5870.5 H9395.5 V6487.5 H8453.5 z" class="border" />
	<path d="M8765.5,5870 V6487" class="border" />
	<path d="M9080.5,5870 V6487" class="border" />
	<path d="M9507.5,5870.5 H10140.5 V6487.5 H9507.5 z" class="border" />
	<path d="M9820.5,5870 V6487" class="border" />
	<use xlink:href="#auto"  width="600" height="600" transform="scale(1,1) translate(6386,6460) rotate(-90)" />
	<use xlink:href="#auto"  width="600" height="600" transform="scale(1,1) translate(6700,6460) rotate(-90)" />
	<use xlink:href="#auto"  width="600" height="600" transform="scale(1,1) translate(7010,6460) rotate(-90)" />
	<use xlink:href="#auto"  width="600" height="600" transform="scale(1,1) translate(7440,6460) rotate(-90)" />
	<use xlink:href="#auto"  width="600" height="600" transform="scale(1,1) translate(7750,6460) rotate(-90)" />
	<use xlink:href="#auto"  width="600" height="600" transform="scale(1,1) translate(8065,6460) rotate(-90)" />
	<use xlink:href="#auto"  width="600" height="600" transform="scale(1,1) translate(8490,6460) rotate(-90)" />
	<use xlink:href="#auto"  width="600" height="600" transform="scale(1,1) translate(8805,6460) rotate(-90)" />
	<use xlink:href="#auto"  width="600" height="600" transform="scale(1,1) translate(9115,6460) rotate(-90)" />
	<use xlink:href="#auto"  width="600" height="600" transform="scale(1,1) translate(9545,6460) rotate(-90)" />
	<use xlink:href="#auto"  width="600" height="600" transform="scale(1,1) translate(9855,6460) rotate(-90)" />
	<path d="M6207.5,2980.5 H7437.5 V3920.5 H6207.5 z" class="border" />
	<path d="M6822.5,2980 V3920" class="border" />
	<path d="M6207,3295 H7437" class="border" />
	<path d="M6207,3610 H7437" class="border" />
	<path d="M6325.5,4035.5 H7437.5 V4975.5 H6325.5 z" class="border" />
	<path d="M6860.5,4035 V4975" class="border" />
	<path d="M6325,4350.5 H7437" class="border" />
	<path d="M6325,4663.5 H7437" class="border" />
	<path d="M6270,3943 V5010 H7380" class="contur-30" />
	<rect x="6255" y="3943" width="70" height="70" class="border-full"/>
	<rect x="6255" y="4995" width="70" height="70" class="border-full"/>
	<rect x="7310" y="4995" width="70" height="70" class="border-full"/>
	<path d="M6228,3943 V5010" class="contur-30" />
	<rect x="6173" y="3943" width="70" height="70" class="border-full"/>
	<rect x="6173" y="4995" width="70" height="70" class="border-full"/>
	<use xlink:href="#auto"  width="600" height="600" transform="scale(-1,1) translate(-6800,3013)" />
	<use xlink:href="#auto"  width="600" height="600" transform="scale(-1,1) translate(-6800,3336)" />
	<use xlink:href="#auto"  width="600" height="600" transform="scale(-1,1) translate(-6800,3650)" />
	<use xlink:href="#auto"  width="600" height="600" transform="scale(1,1) translate(6850,3013)" />
	<use xlink:href="#auto"  width="600" height="600" transform="scale(1,1) translate(6850,3336)" />
	<use xlink:href="#auto"  width="600" height="600" transform="scale(1,1) translate(6850,3650)" />
	<use xlink:href="#auto"  width="600" height="600" transform="scale(1,1) translate(6290,4085)" />
	<use xlink:href="#auto"  width="600" height="600" transform="scale(1,1) translate(6290,4390)" />
	<use xlink:href="#auto"  width="600" height="600" transform="scale(1,1) translate(6290,4700)" />
	<use xlink:href="#auto"  width="600" height="600" transform="scale(1,1) translate(6870,4085)" />
	<use xlink:href="#auto"  width="600" height="600" transform="scale(1,1) translate(6870,4390)" />
	<use xlink:href="#auto"  width="600" height="600" transform="scale(1,1) translate(6870,4700)" />
	<path d="M4264.5,2982 V3925 H5435.5 V2982" class="border" />
	<path d="M4850.5,2982 V3925" class="border" />
	<path d="M4264,3295.5 H5435" class="border" />
	<path d="M4264,3610.5 H5435" class="border" />
	<path d="M4264.5,4036.5 H5435.5 V4977.5 H4264.5 z" class="border" />
	<path d="M4850.5,4036 V4977" class="border" />
	<path d="M4264,4348.5 H5435" class="border" />
	<path d="M4264,4662.5 H5435" class="border" />
	<use xlink:href="#auto"  width="600" height="600" transform="scale(1,1) translate(4270,3032)" />
	<use xlink:href="#auto"  width="600" height="600" transform="scale(1,1) translate(4270,3340)" />
	<use xlink:href="#auto"  width="600" height="600" transform="scale(1,1) translate(4270,3650)" />
	<use xlink:href="#auto"  width="600" height="600" transform="scale(1,1) translate(4866,3340)" />
	<use xlink:href="#auto"  width="600" height="600" transform="scale(1,1) translate(4866,3650)" />
	<path d="M5165,3318 L5130,3255 5318,3146 5354,3206 z" class="border-full" />
	<rect x="5115.5" y="3130.5" width="250" height="200" class="border"/>
	<rect x="5105.5" y="3120.5" width="270" height="220" class="border"/>
	<use xlink:href="#auto"  width="600" height="600" transform="scale(1,1) translate(4270,4068)" />
	<use xlink:href="#auto"  width="600" height="600" transform="scale(1,1) translate(4270,4360)" />
	<use xlink:href="#auto"  width="600" height="600" transform="scale(1,1) translate(4270,4760)" />
	<use xlink:href="#auto"  width="600" height="600" transform="scale(1,1) translate(4866,4068)" />
	<use xlink:href="#auto"  width="600" height="600" transform="scale(1,1) translate(4866,4360)" />
	<use xlink:href="#auto"  width="600" height="600" transform="scale(1,1) translate(4866,4760)" />
	<use xlink:href="#auto_icon"  x="4550" y="5362" width="100" height="100" />
	<use xlink:href="#auto_icon"  x="5055" y="5362" width="100" height="100" />
</g>
<g>
	<desc>Вестибюль</desc>
	<path d="M6878,8077 V8485 L11492,8485 C11716,7724 12300,7248 12900,7067 V3323" class="contur-30" />
	<path d="M12918,7077 V4940" class="contur-8" />
	<path d="M7300,8077 V8477" class="contur-20" />
	<path d="M7735,8077 V8477" class="contur-20" />
	<path d="M8530,8077 V8477" class="contur-30" />
	<path d="M10547,8077 V8235" class="contur-30" />
	<path d="M10547,8355 V8480" class="contur-30" />
	<path d="M10470,8050 H10625" class="contur-30" />
	<path d="M10837,8050 H11240 C11575,7300 12165,6942 12471,6808 V6517" class="contur-40" />
	<path d="M10562,8065 H10625" class="contur-10" />
	<path d="M10523,8092 H10572" class="contur-46" />
	<path d="M12471,6310 V6050" class="contur-40" />
	<path d="M12471,6035 V5767" class="contur-40" />
	<path d="M12485,6060 V6020" class="contur-12" />
	<path d="M12471,5580 V5323" class="contur-40" />
	<path d="M12471,5077 V4920" class="contur-40" />
	<path d="M12471,4673 V4495" class="contur-40" />
	<path d="M12471,4290 V3710" class="contur-40" />
	<path d="M12468,3977 V3710" class="contur-46" />
	<path d="M12468,3505 V3272" class="contur-46" />
	<path d="M12468,3067 V2900 H11055 V2773" class="contur-46" />
	<path d="M12480,3370 H12705 M12827,3370 H12895" class="contur-12" />
	<path d="M4744,2860 L5776,2268 5780,2085" class="contur-20" />
	<path d="M3866,3136 L4272,3834" class="contur-20" />
	<path d="M4242,3782 L3920,3972 4372,4756" class="contur-30" />
	<path d="M3336,5164 L2962,4520 3872,3988 4247,4628" class="contur-30" />
	<path d="M2376,5378 L2182,5036 2604,4790" class="contur-20" />
	<path d="M2754,4708 L2994,4566" class="contur-20" />
	<path d="M2464,5528 L2518,5628" class="contur-20" />
	<path d="M1752,5226 L2158,4984 2186,5032" class="contur-30" />
	<rect width="190" height="385" x="7093.5" y="8079.5"  class="border"/>
	<path d="M7093.5,8079.5 L7283.5,8464.5" class="border" />
	<path d="M7283.5,8079.5 L7093.5,8464.5" class="border" />
	<rect width="60" height="125" x="7026.5" y="8210.5"  class="border"/>
	<rect width="60" height="125" x="7026.5" y="8339.5"  class="border"/>
	<rect width="55" height="55" x="6900.5" y="8405.5"  class="border"/>
	<path d="M11244,2506 L11384,2443 V2572 z" class="border-full" />
	<use xlink:href="#prohod" width="120" height="120" transform="scale(1,1) translate(3234,5068) rotate(60)"/>
	<use xlink:href="#prohod" width="120" height="120" transform="scale(-1,1) translate(-3398,4970) rotate(120)"/>
</g>
<g id="navigation">

<use xlink:href="#et_1" onclick="go:sbb--1.svg" width="350" height="350" x="13126" y="2929" class="number_active" />
<use xlink:href="#et_0" onclick="go:sbb-0.svg"  width="350" height="350" x="13126" y="3379" class="number_et" />
<use xlink:href="#et1" onclick="go:sbb-1.svg" width="350" height="350" x="13126" y="3829" class="number_et" />
<use xlink:href="#et2" onclick="go:sbb-2.svg" width="350" height="350" x="13126" y="4279" class="number_et" />
<use xlink:href="#et3" onclick="go:sbb-3.svg" width="350" height="350" x="13126" y="4729" class="number_et" />
<use xlink:href="#et4" onclick="go:sbb-4.svg" width="350" height="350" x="13126" y="5179" class="number_et" />
</g>

<desc>Кнопки темпиратуры</desc>
<g class="green_term" id="button1" cursor="pointer" transform="scale(1,1) translate(6700,3700)" >
	<use xlink:href="#knopka_circle"  width="240" height="240" x="91" y="91" />
	<text x="185" y="190" style="font-size:70px; font-family:'CRYSTAL'; font-weight:normal" >{%L960B17/TRUNK.SUB-01.Parameters.AI_0102.85%}</text>
	<text x="185" y="260" style="font-size:60px;  font-family:'CRYSTAL'; font-weight:normal" >C</text>
	<text x="212" y="228" style="font-size:30px;  font-family:'CRYSTAL'; font-weight:normal" >o</text>
</g>
	<symbol id="thermostat"  width="638" height="638" viewBox="0 0 638 638">
		<text x="173" y="337" style="font-size:140px;  font-family:'CRYSTAL'; font-weight:normal" fill="#FFFFFF" >{%L960B17/TRUNK.SUB-01.Parameters.SETTEMP.85%}</text>
		<text x="415" y="235" style="font-size:60px;  font-family:'CRYSTAL'; font-weight:normal" fill="#FFFFFF" >C</text>
		<text x="401" y="207" style="font-size:22px;  font-family:'CRYSTAL'; font-weight:normal" fill="#FFFFFF" >o</text>
	</symbol>

<g id="sloi1" transform="scale(1,1) translate(7000,3700)" display="none" >
	<use xlink:href="#rama-black"  width="744.062" height="744.062" fill="#000000" />
	<rect x="71.7" y="170" width="600" height="345" fill="#111111" />
	<use xlink:href="#sun" x="30" y="-285" width="540" height="540" />
	<use xlink:href="#thermostat" x="69.75" y="30" width="667.5" height="667.5"  />
	<use xlink:href="#shkala" x="-84" y="-189" width="787" height="787"  />
	<text x="345.75" y="486" style="font-size:54px; font-family:'CRYSTAL'; font-weight:normal;" fill="#FFFFFF">{%L960B17/TRUNK.SUB-01.Parameters.SETTEMP.85%}</text>
	<use xlink:href="#button" x="273" y="517.5" width="180" height="180" class="str" cursor="pointer" />
	<use xlink:href="#str_b" x="189" y="525" width="180" height="180" class="str" cursor="pointer" />
	<use xlink:href="#str_top" x="445.5" y="550.5" width="180" height="180" class="str" cursor="pointer" />
	<use xlink:href="#bas" x="210" y="45" width="300" height="300" />
	<text id="close"  x="645" y="90" style="font-size:60px; font-family:Arial, Helvetica, sans-serif" fill="#FFFFFF" cursor="pointer" >х</text>
</g>
	<animate 
    xlink:href="#sloi1"
    attributeName="display" 
    to="block" 
    dur="0.5s"
    begin="button1.click"
    fill="freeze" 
    id="rect-anim" />
	<animate 
    xlink:href="#sloi1"
    attributeName="display" 
    to="none" 
    dur="0.5s"
    begin="close.click"
    fill="freeze" 
    id="close" />

	<desc>2</desc>
	<g class="green_term" id="button2" cursor="pointer" transform="scale(1,1) translate(10000,3700)" >
		<use xlink:href="#knopka_circle"  width="240" height="240" x="91" y="91" />
		<text x="185" y="190" style="font-size:70px; font-family:'CRYSTAL'; font-weight:normal" >{%L960B17/TRUNK.SUB-03.Parameters.AI_0302.85%}</text>
		<text x="185" y="260" style="font-size:60px;  font-family:'CRYSTAL'; font-weight:normal" >C</text>
		<text x="212" y="228" style="font-size:30px;  font-family:'CRYSTAL'; font-weight:normal" >o</text>
	</g>
	<g>
		<symbol id="thermostat2"  width="638" height="638" viewBox="0 0 638 638">
			<text x="173" y="337" style="font-size:140px;  font-family:'CRYSTAL'; font-weight:normal" fill="#FFFFFF" >{%L960B17/TRUNK.SUB-03.Parameters.SETTEMP.85%}</text>
			<text x="415" y="235" style="font-size:60px;  font-family:'CRYSTAL'; font-weight:normal" fill="#FFFFFF" >C</text>
			<text x="401" y="207" style="font-size:22px;  font-family:'CRYSTAL'; font-weight:normal" fill="#FFFFFF" >o</text>
		</symbol>
		<g id="sloi2" transform="scale(1,1) translate(10300,3700)" display="none" >
			<use xlink:href="#rama-black"  width="744.062" height="744.062" fill="#000000" />
			<rect x="71.7" y="170" width="600" height="345" fill="#111111" />
			<use xlink:href="#sun" x="30" y="-285" width="540" height="540" />
			<use xlink:href="#thermostat2" x="69.75" y="30" width="667.5" height="667.5"  />
			<use xlink:href="#shkala" x="-84" y="-189" width="787" height="787"  />
			<text x="345.75" y="486" style="font-size:54px; font-family:'CRYSTAL'; font-weight:normal;" fill="#FFFFFF">{%L960B17/TRUNK.SUB-03.Parameters.SETTEMP.85%}</text>
			<use xlink:href="#button2" x="273" y="517.5" width="180" height="180" class="str" cursor="pointer" />
			<use xlink:href="#str_b" x="189" y="525" width="180" height="180" class="str" cursor="pointer" />
			<use xlink:href="#str_top" x="445.5" y="550.5" width="180" height="180" class="str" cursor="pointer" />
			<use xlink:href="#bas" x="210" y="45" width="300" height="300" />
			<text id="close2"  x="645" y="90" style="font-size:60px; font-family:Arial, Helvetica, sans-serif" fill="#FFFFFF" cursor="pointer" >х</text>
		</g>
		<animate
				xlink:href="#sloi2"
				attributeName="display"
				to="block"
				dur="0.5s"
				begin="button2.click"
				fill="freeze"
				id="rect-anim" />
		<animate
				xlink:href="#sloi2"
				attributeName="display"
				to="none"
				dur="0.5s"
				begin="close2.click"
				fill="freeze"
				id="close2" />
	</g>

<g>
    <animate
       attributeType="xml"
       attributeName="opacity"
       from="0"
       to="1"
       dur="1s"
       repeatCount="indefinite"
       restart="whenNotActive" />
<use xlink:href="#atn"   x="3715" y="7030" width="250" height="250" />
</g>
</svg>